<svg width="36" height="36" viewBox="0 0 36 36" fill="none" xmlns="http://www.w3.org/2000/svg">
<path d="M27.6205 7.26025H1V34.9999H27.6205V7.26025Z" fill="#276EF1"/>
<path d="M35 19.4302H13.2864V34.9999H35V19.4302Z" fill="#A0BFF8"/>
<path d="M14.2909 14.9873C10.8909 14.9873 8.14771 17.7304 8.14771 21.1302C8.14771 24.1824 10.35 26.6936 13.2477 27.1572V19.4303H17.7295V16.0691C16.7636 15.4123 15.6045 14.9873 14.2909 14.9873Z" fill="white"/>
<path d="M20.7044 13.1714V19.4302H17.7681V16.069L20.7044 13.1714Z" fill="black"/>
<path d="M30.5181 16.069V19.4302H27.5818V13.1714L30.5181 16.069Z" fill="black"/>
<path d="M19.2363 25.6118H29.05C29.05 28.3162 26.8477 30.5184 24.1431 30.5184H24.1045C21.4386 30.5184 19.2363 28.3162 19.2363 25.6118Z" fill="#276EF1"/>
<path d="M17.7625 3.8976V1L10.8852 1V3.8976L17.7625 3.8976Z" fill="#276EF1"/>
<path d="M27.5881 16.0802V13.1826L20.7109 13.1826V16.0802H27.5881Z" fill="#A0BFF8"/>
<path d="M10.8524 1.00171V7.26052H7.91602V3.89931L10.8524 1.00171Z" fill="#A0BFF8"/>
<path d="M20.7047 3.89931V7.26052H17.7683V1.00171L20.7047 3.89931Z" fill="#A0BFF8"/>
</svg>
