<svg width="24" height="24" viewBox="0 0 24 24" fill="none" xmlns="http://www.w3.org/2000/svg">
  <title>Person group (filled)</title>
  <g transform="matrix(
          1 0
          0 1
          1 2
        )"><path fill-rule="evenodd" clip-rule="evenodd" d="M 15 4 C 15 6.2091064453125 13.208984375 8 11 8 C 8.791015625 8 7 6.2091064453125 7 4 C 7 1.7908935546875 8.791015625 0 11 0 C 13.208984375 0 15 1.7908935546875 15 4 Z M 17 14 L 17 19 L 5 19 L 5 14 C 5 13.300048828125 5.2001953125 12.5999755859375 5.5 12 C 6.2001953125 10.800048828125 7.5 10 9 10 L 13 10 C 14.5 10 15.7998046875 10.800048828125 16.5 12 C 16.7998046875 12.5999755859375 17 13.300048828125 17 14 Z M 0 16 L 0 19 L 3 19 L 3 12.0999755859375 C 1.2998046875 12.5999755859375 0 14.0999755859375 0 16 Z M 19 12.0999755859375 L 19 19 L 22 19 L 22 16 C 22 14.0999755859375 20.7001953125 12.5999755859375 19 12.0999755859375 Z M 19 4 C 17.2998046875 4 16 5.300048828125 16 7 C 16 8.699951171875 17.2998046875 10 19 10 C 20.7001953125 10 22 8.699951171875 22 7 C 22 5.300048828125 20.7001953125 4 19 4 Z M 0 7 C 0 5.300048828125 1.2998046875 4 3 4 C 4.7001953125 4 6 5.300048828125 6 7 C 6 8.699951171875 4.7001953125 10 3 10 C 1.2998046875 10 0 8.699951171875 0 7 Z" fill="currentColor"/></g>
</svg>