<svg width="64" height="64" viewBox="0 0 64 64" fill="none" xmlns="http://www.w3.org/2000/svg">
<path d="M62.2223 24.6001H1.77832V62.2221H62.2223V24.6001Z" fill="#4F7F06"/>
<path d="M62.222 1.77808H39.333V24.5981H62.223L62.222 1.77808Z" fill="#A6D467"/>
<path d="M39.3333 24.6001H24.7363V62.2221H39.3333V24.6001Z" fill="#A33B04"/>
<path d="M24.6673 1.77808H1.77734V24.5981H24.6673V1.77808Z" fill="#A6D467"/>
<path d="M24.7365 22.1311H7.74045C7.74045 20.2121 6.16445 18.7041 4.31445 18.7041V7.67112C6.23345 7.67112 7.74045 6.09512 7.74045 4.24512H24.7365V22.1301V22.1311Z" fill="white"/>
<path d="M24.7369 7.87695V18.5C22.7489 17.541 21.3789 15.554 21.3789 13.224C21.3789 10.894 22.7489 8.83695 24.7369 7.87695Z" fill="#A6D467"/>
<path d="M39.333 22.1311H56.329C56.329 20.2121 57.905 18.7041 59.755 18.7041V7.67112C57.836 7.67112 56.329 6.09512 56.329 4.24512H39.333V22.1301V22.1311Z" fill="white"/>
<path d="M13.9084 15.896C14.2637 15.9029 14.6168 15.8389 14.9471 15.7076C15.2774 15.5764 15.5781 15.3807 15.8318 15.1318C16.0855 14.883 16.2871 14.586 16.4247 14.2584C16.5622 13.9307 16.6331 13.5789 16.6331 13.2235C16.6331 12.8682 16.5622 12.5164 16.4247 12.1887C16.2871 11.861 16.0855 11.5641 15.8318 11.3153C15.5781 11.0664 15.2774 10.8706 14.9471 10.7394C14.6168 10.6082 14.2637 10.5442 13.9084 10.551C13.2086 10.5646 12.542 10.8521 12.0518 11.3518C11.5617 11.8515 11.2871 12.5236 11.2871 13.2235C11.2871 13.9235 11.5617 14.5955 12.0518 15.0953C12.542 15.595 13.2086 15.8825 13.9084 15.896Z" fill="#4F7F06"/>
<path d="M39.333 18.5V7.87598C41.32 8.83598 42.691 10.823 42.691 13.153C42.691 15.483 41.321 17.539 39.333 18.498V18.5Z" fill="#A6D467"/>
<path d="M50.1604 15.896C50.5157 15.9029 50.8688 15.8389 51.199 15.7076C51.5293 15.5764 51.8301 15.3807 52.0838 15.1318C52.3375 14.883 52.539 14.586 52.6766 14.2584C52.8142 13.9307 52.8851 13.5789 52.8851 13.2235C52.8851 12.8682 52.8142 12.5164 52.6766 12.1887C52.539 11.861 52.3375 11.5641 52.0838 11.3153C51.8301 11.0664 51.5293 10.8706 51.199 10.7394C50.8688 10.6082 50.5157 10.5442 50.1604 10.551C49.4605 10.5646 48.7939 10.8521 48.3038 11.3518C47.8136 11.8515 47.5391 12.5236 47.5391 13.2235C47.5391 13.9235 47.8136 14.5955 48.3038 15.0953C48.7939 15.595 49.4605 15.8825 50.1604 15.896Z" fill="#4F7F06"/>
<path d="M39.4023 1.77808H24.7363V24.5981H39.4023V1.77808Z" fill="#FC823A"/>
</svg>
