<svg width="24" height="24" viewBox="0 0 24 24" fill="none" xmlns="http://www.w3.org/2000/svg">
  <title>Network (filled)</title>
  <g transform="matrix(
          1 0
          0 1
          0.479736328125 0.5
        )"><path fill-rule="nonzero" clip-rule="nonzero" d="M 21.520259857177734 13.399993896484375 C 21.520259857177734 13.099993705749512 21.520259857177734 12.800000190734863 21.520259857177734 12.5 C 21.520259857177734 8.399999618530273 19.020160675048828 4.8000030517578125 15.420161247253418 3.3000030517578125 C 15.120161056518555 1.4000030755996704 13.420258522033691 0 11.520258903503418 0 C 9.620259284973145 0 7.9203572273254395 1.4000030755996704 7.620357036590576 3.3000030517578125 C 4.020357131958008 4.8000030517578125 1.520259141921997 8.399999618530273 1.520259141921997 12.5 C 1.520259141921997 12.800000190734863 1.520259141921997 13.099993705749512 1.520259141921997 13.399993896484375 C 0.02025914192199707 14.599993705749512 -0.47974079847335815 16.799999237060547 0.5202592015266418 18.5 C 1.520259141921997 20.200000762939453 3.5202105045318604 20.90000343322754 5.220210552215576 20.300003051757812 C 6.920210838317871 21.700002670288086 9.120161056518555 22.5 11.420161247253418 22.5 C 13.820161819458008 22.5 15.920357704162598 21.700002670288086 17.620357513427734 20.300003051757812 C 19.42035675048828 20.90000343322754 21.42030906677246 20.200000762939453 22.320308685302734 18.5 C 23.520309448242188 16.799999237060547 23.020259857177734 14.599993705749512 21.520259857177734 13.399993896484375 Z M 7.620357036590576 18.300003051757812 C 8.220356941223145 17.10000228881836 8.220259666442871 15.699999809265137 7.520259380340576 14.5 C 6.920259475708008 13.399999618530273 5.720259666442871 12.699999809265137 4.520259380340576 12.5 C 4.520259380340576 9.800000190734863 6.020210266113281 7.500002861022949 8.220210075378418 6.3000030517578125 C 8.920209884643555 7.3000030517578125 10.120259284973145 8 11.520258903503418 8 C 12.920258522033691 8 14.020307540893555 7.3000030517578125 14.820307731628418 6.3000030517578125 C 17.020307540893555 7.500002861022949 18.520259857177734 9.800000190734863 18.520259857177734 12.5 C 17.32025909423828 12.699999809265137 16.220258712768555 13.300000190734863 15.520258903503418 14.5 C 14.820259094238281 15.699999809265137 14.820160865783691 17.10000228881836 15.420161247253418 18.300003051757812 C 14.320160865783691 19.10000228881836 12.920258522033691 19.5 11.520258903503418 19.5 C 10.020258903503418 19.5 8.720356941223145 19.10000228881836 7.620357036590576 18.300003051757812 Z" fill="currentColor"/></g>
</svg>