<svg width="360" height="204" viewBox="0 0 360 204" fill="none" xmlns="http://www.w3.org/2000/svg">
<g clip-path="url(#clip0_808_110778)">
<rect x="34" y="20" width="164" height="164" rx="82" fill="white"/>
<g clip-path="url(#clip1_808_110778)">
<path d="M405.733 -187.733H186.837V80.8336H405.733V-187.733Z" fill="#266EF1"/>
<g opacity="0.3">
<path d="M223.074 -187.733L187.026 80.8336H186.837V75.2542L222.138 -187.733H223.074Z" fill="#6C82C0"/>
<path d="M238.487 -187.733L224.619 -107.749L201.688 80.8336H201.22L223.053 -98.7136L194.67 64.973L192.543 80.8336H192.072L192.595 76.9442L191.92 80.8336H190.98L195.83 52.8607L228.123 -187.733H228.594L197.906 40.8895L225.269 -116.925L233.878 -187.733H234.346L226.836 -125.964L237.544 -187.733H238.487Z" fill="#6C82C0"/>
<path d="M212.906 -187.733L186.837 26.6328V22.7846L212.438 -187.733H212.906Z" fill="#6C82C0"/>
<path d="M217.677 -187.733L186.837 65.861V62.0129L215.873 -176.753L186.837 39.5574V32.5805L216.41 -187.733H217.677Z" fill="#6C82C0"/>
</g>
<path d="M405.733 -97.681V-53.4516L403.018 -54.0195L402.56 -54.1125L398.529 -54.9558L398.072 -55.0487L396.64 -55.3481L396.378 -55.4032L396.196 -55.4411L395.463 -55.5925L385.932 -57.582L385.47 -57.6749L381.24 -58.5595L380.782 -58.6524L376.779 -59.4888L376.322 -59.5852L372.759 -60.3252L371.844 -60.518L370.821 -60.7314L369.909 -60.9207L364.54 -62.0393L364.395 -62.0703L363.655 -62.2252L363.197 -62.3181L356.279 -63.7638L355.367 -63.9531L351.223 -64.817L350.765 -64.9134L350.183 -65.0339L349.877 -65.0958L349.571 -65.1612L349.516 -65.1715L349.213 -65.2335L348.906 -65.2989L342.914 -66.5483L342.146 -66.7067L342.005 -66.7376L339.937 -67.1679L339.024 -67.3572L333.466 -68.5171L332.85 -68.6479L331.979 -68.8304L331.06 -69.0197L325.091 -70.2622L324.768 -70.3311L324.172 -70.455L321.295 -71.0539L317.467 -71.8524L317.01 -71.9488L316.173 -72.1209L315.261 -72.3136L312.335 -72.9229L311.881 -73.0158L303.92 -74.6783L303.059 -74.8573L302.147 -75.0466L298.447 -75.8176L297.535 -76.0103L295.449 -76.444L294.998 -76.5369L294.069 -76.7297L293.614 -76.8261L290.117 -77.5558L289.663 -77.6487L286.779 -78.251L286.324 -78.344L281.95 -79.2561L281.037 -79.4488L272.99 -81.1251L272.071 -81.3178L268.849 -81.989L268.633 -82.0338L266.044 -82.5742L265.586 -82.6705L263.917 -83.0182L262.716 -83.266H262.702L262.516 -83.3107L261.16 -83.593L260.702 -83.6894L260.22 -83.7892L259.312 -83.9785L256.624 -84.5395L255.711 -84.7288L253.481 -85.1935L252.397 -85.4172L251.547 -85.5962L251.089 -85.6892L246.401 -86.6667L245.492 -86.856L242.064 -87.5719L241.462 -87.6993L241.152 -87.7647H241.148L240.401 -87.9196L239.947 -88.0159L237.128 -88.6011L236.67 -88.6974L235.59 -88.9246L234.681 -89.1139L230.354 -90.0157L229.446 -90.205L222.658 -91.6197L222.204 -91.7126L221.853 -91.7849L220.944 -91.9742L219.96 -92.1807L219.657 -92.2461L219.35 -92.3081L218.934 -92.3941L218.624 -92.4595L218.321 -92.5215L215.884 -93.0309L215.427 -93.1238L210.515 -94.1495L209.603 -94.3388L206.402 -95.0066L205.944 -95.103L204.942 -95.3129L204.03 -95.5022L201.748 -95.9772L201.29 -96.0736L198.599 -96.6346V13.4707L199.143 13.6463L201.015 14.2521L201.462 14.4001L202.443 14.7167L203.335 15.0058L209.004 16.8438L209.451 16.9884L214.821 18.7301L215.657 19.002L215.719 19.0226L215.915 19.0846L216.793 19.3703L216.81 19.3771L223.274 21.4733L223.725 21.6179L225.171 22.086L225.615 22.2305L230.63 23.8586L231.528 24.1477L237.496 26.0856L237.947 26.2301L240.698 27.1216L241.596 27.4142L244.243 28.2712L245.141 28.5638L246.28 28.9321L246.377 28.9631L246.983 29.1592L247.275 29.2556L247.43 29.3072L249.581 30.006H249.588L251.774 30.715L251.798 30.7219L252.249 30.8699L252.6 30.9835L253.34 31.221H253.343L253.495 31.2692L256.568 32.2708H256.572L256.823 32.3534L257.718 32.6425L260.806 33.6441L261.398 33.8369L262.155 34.0813L262.289 34.126L269.531 36.4734L270.853 36.9002L271.3 37.0448L272.914 37.568L274.143 37.9672L274.209 37.9879L274.591 38.1118L278.036 39.2305L278.484 39.375L281.898 40.4833L282.796 40.7759L284.689 41.3886L286.441 41.9565L287.34 42.2491L288.806 42.7241H288.809L290.933 43.4125L291.529 43.6052L291.783 43.6878L292.375 43.8806L296.031 45.0646L296.478 45.2092L297.903 45.6704L298.798 45.963L299.493 46.1867L300.368 46.4689L301.342 46.7856L302.522 47.1677L302.973 47.3157L314.941 51.1948L315.85 51.4908L316.796 51.7971L320.255 52.9192L321.77 53.4114L322.678 53.704L322.768 53.7349L323.67 54.0275L325.707 54.6884L326.602 54.9775L328.433 55.573L329.046 55.7692L331.118 56.4403L334.626 57.5796L335.813 57.9651H335.816C335.816 57.9651 335.82 57.9686 335.823 57.9686L335.885 57.9892L336.274 58.1131L336.553 58.2026L336.815 58.2887L337.4 58.478L337.562 58.5296L338.866 58.953L339.768 59.2455L347.653 61.8029L348.084 61.9441L348.245 61.9957L348.514 62.0817L348.535 62.0886L349.103 62.2745L349.302 62.3399L349.739 62.481L350.576 62.7495L353.195 63.5997L354.093 63.8922L359.511 65.6476L359.962 65.7956L362.203 66.5219L363.111 66.8179L365.435 67.5717L365.882 67.7162L368.526 68.5733L368.976 68.7213L369.575 68.9141L370.181 69.1103L370.505 69.2135L371.111 69.4097L382.486 73.0995L382.937 73.2441L385.618 74.1149L386.531 74.4109L386.916 74.5348L387.364 74.6794L392.079 76.2111L392.981 76.5002L398.398 78.259L398.849 78.4036L401.193 79.1643L402.099 79.4603L405.733 80.6374V184H34V-187.733H198.599V-135.03L198.826 -134.989L205.872 -133.718L206.329 -133.636L209.083 -133.14L209.999 -132.975L210.539 -132.879L210.997 -132.796L214.676 -132.132L215.588 -131.967L220.521 -131.078L220.978 -130.996L226.441 -130.011L226.854 -129.936L227.308 -129.853L227.504 -129.819L227.766 -129.771L228.417 -129.654L234.591 -128.542L235.504 -128.377L241.307 -127.33L242.219 -127.165L245.134 -126.638L245.589 -126.556L250.696 -125.637L251.612 -125.472L253.498 -125.131L255.46 -124.776L255.832 -124.707L256.293 -124.625L260.954 -123.788L261.869 -123.623L264.568 -123.138L265.938 -122.89L268.399 -122.446L269.183 -122.301H269.187L269.658 -122.215L270.381 -122.085L270.839 -122.002L277.382 -120.821L278.298 -120.656L278.872 -120.553L279.788 -120.388L287.884 -118.928L288.799 -118.763L291.68 -118.243L292.138 -118.164L295.029 -117.641L295.487 -117.558L298.998 -116.925L299.452 -116.842L302.932 -116.216L303.847 -116.051L307.561 -115.383L308.477 -115.218L317.333 -113.621L317.787 -113.538L321.281 -112.908L322.434 -112.698L327.311 -111.821L328.23 -111.655L331.07 -111.143L332.447 -110.895L334.216 -110.575L335.135 -110.409L344.576 -108.709L345.492 -108.544L347.564 -108.169L348.48 -108.003L353.353 -107.126L355.322 -106.771L355.845 -106.678L356.303 -106.596L360.977 -105.752L361.893 -105.587L368.319 -104.427L368.777 -104.345L375.083 -103.209L376.487 -102.954L382.008 -101.959L382.469 -101.877L385.963 -101.247L386.42 -101.164L391.194 -100.304L391.652 -100.221L398.753 -98.9408L399.672 -98.7755L403.307 -98.1181L403.768 -98.0355L405.733 -97.681Z" fill="#812611"/>
<path d="M405.733 117.085V184H34V96.9939L35.3596 96.4707L48.0639 91.5969L52.8999 89.7382L58.4518 87.6076L62.2311 86.1585L63.1845 85.7902L66.7573 84.4203L68.6469 83.6941L71.3351 82.6615L75.4861 81.0679L77.3138 80.3657L80.1707 79.2711L80.8866 78.9958L87.1785 76.5795L91.4466 74.9412L91.5533 74.8999L95.0193 73.5712L109.675 67.9436L110.322 67.6958L111.169 67.3722L112.477 66.8697L113.42 66.5083L113.964 66.2983L116.277 65.4103C116.277 65.4103 116.284 65.4103 116.287 65.4103L119.161 64.3054H119.165L126.82 61.366C126.82 61.366 126.827 61.3626 126.834 61.3626L130.217 60.0615H130.22L134.774 58.313C134.774 58.313 134.774 58.313 134.778 58.313L140.398 56.1549L154.579 50.7097L155.116 50.5031H155.12L155.98 50.1727L158.82 49.0816C158.851 49.0713 158.882 49.0609 158.913 49.0472L159.794 48.7099H159.797L161.388 48.0972H161.405L163.088 47.4467H163.091L170.732 44.5107L171.658 44.1527H171.662L180.27 40.8484L181.179 41.1547H181.182L181.2 41.1616L182.404 41.5712L185.375 42.5763H185.378L186.834 43.0685L186.899 43.0891L188.383 43.5917L188.975 43.7913L189.047 43.8154L189.498 43.9668L190.968 44.4659L191.866 44.7688L195.704 46.0664L196.695 46.4003L197.305 46.6068L197.824 46.7824L198.43 46.9889L204.626 49.0851L205.063 49.2331L205.51 49.3845L205.865 49.505L207.489 50.0522L209.007 50.5685L209.32 50.6718L210.122 50.9437L210.374 51.0298L210.976 51.2328L211.372 51.3671L213.151 51.9694L218.583 53.8074C218.583 53.8074 218.583 53.804 218.586 53.8074L218.789 53.8763L219.306 54.0484L219.471 54.1034H219.474L219.757 54.1998L219.867 54.2377L220.806 54.5543L221.25 54.7058L224.637 55.852L226.255 56.3992L227.15 56.7021L233.507 58.8499L233.955 59.0014L236.306 59.7965L237.204 60.0994L238.98 60.7017L239.844 60.9943L240.742 61.2972L242.976 62.0544L243.279 62.1577L243.424 62.2059L246.972 63.4071L248.235 63.8339L252.4 65.2417L253.295 65.5446L255.749 66.3741L256.637 66.677L264.003 69.1655L265.077 69.5269H265.08L266.409 69.9744L266.853 70.1258L268.877 70.8108L269.689 71.0861L270.137 71.2376L273.579 72.401L274.023 72.5524L277.434 73.7055L278.329 74.0084L281.967 75.2372L282.865 75.5401L291.539 78.4761L291.986 78.6275L293.022 78.9786L293.917 79.2815L298.426 80.8063L298.523 80.8373L303.713 82.5927L307.902 84.0108L310.026 84.7267L313.991 86.069L321.67 88.6643L321.815 88.7125L322.73 89.0223L323.873 89.4078L324.152 89.5041L329.335 91.2561L330.13 91.5246L331.996 92.1545L332.715 92.3988L344.532 96.395L344.817 96.4914H344.821L405.726 117.088L405.733 117.085Z" fill="black"/>
<path d="M405.733 125.19V184H34V96.9938L35.3596 96.4706L48.0639 91.5967L52.8999 89.7381L58.4518 87.6075L62.2311 86.1584L63.1845 85.7901L66.7573 84.4202L68.6469 83.694L71.3351 82.6614L75.4861 81.0677L77.3138 80.3656L80.1707 79.271L80.8866 78.9957L87.1785 76.5794L91.4466 74.941L91.5533 74.8997L95.0193 73.5711L109.675 67.9435L110.322 67.6956L111.169 67.3721L112.477 66.8696L113.42 66.5082L113.964 66.2982L116.277 65.4102C116.277 65.4102 116.284 65.4102 116.287 65.4102L119.161 64.3053H119.165L126.82 61.3659C126.82 61.3659 126.827 61.3624 126.834 61.3624L130.217 60.0613H130.22L134.774 58.3128C134.774 58.3128 134.774 58.3128 134.778 58.3128L140.398 56.1547L154.579 50.7095L155.116 50.503H155.12L155.98 50.1726L158.82 49.0815C158.851 49.0711 158.882 49.0608 158.913 49.047L159.794 48.7097H159.797L161.388 48.097H161.405L163.088 47.4465H163.091L170.732 44.5105L171.176 44.6619L171.242 44.686L179.145 47.3983L179.344 47.4672L186.834 50.0383L188.231 50.5202L188.682 50.6716L190.069 51.1501L190.968 51.4564L192.675 52.045H192.682L193.818 52.4374L194.933 52.8194H194.94L195.783 53.112L196.503 53.3598L196.671 53.4183L197.525 53.7075H197.528L199.036 54.2272L200.141 54.6058L203.07 55.6143L204.237 56.0136L204.436 56.0824H204.44L204.688 56.1685L209.214 57.7243L210.467 58.1545L211.141 58.3851L212.17 58.7396L212.518 58.8567L213.241 59.1045L218.473 60.9012L218.751 60.9976L218.924 61.0561L219.794 61.3555L219.832 61.3693L219.887 61.39L220.335 61.5414L225.336 63.259L226.231 63.5653L228.248 64.2571H228.251L228.389 64.3088L228.623 64.3879L232.664 65.775L233.115 65.9299L234.457 66.3911L235.376 66.7078L236.275 67.0141L238.915 67.9194L239.813 68.2292L242.126 69.0208L242.577 69.1757L243.176 69.3822L245.781 70.2771L246.669 70.5835L246.931 70.673L247.385 70.8279L251.464 72.2287L252.359 72.5351L254.548 73.2889L255.439 73.5952L257.164 74.1872L258.234 74.5555L265.383 77.0096L265.459 77.0372L265.903 77.1886L268.56 78.1008L268.739 78.1627L269.187 78.3176L272.625 79.4948L273.069 79.6496L276.48 80.8199L276.532 80.8371L301.221 89.3147C301.221 89.3147 301.221 89.3147 301.225 89.3147L302.161 89.6348L303.231 90.0031L303.548 90.1132L306.522 91.1321C306.522 91.1321 306.532 91.1321 306.536 91.1355L306.556 91.1458L308.535 91.8239H308.539L309.947 92.3092L311.203 92.7395L313.055 93.3763H313.065L316.029 94.3951L324.262 97.2244L325.37 97.603L327.893 98.4704L328.977 98.8421L336.691 101.492L339.355 102.405L346.177 104.749L347.161 105.086L348.228 105.454L349.35 105.84L354.128 107.478H354.131L392.155 120.533L393.225 120.902L405.726 125.194L405.733 125.19Z" fill="#A33B04"/>
<path d="M108.577 123.19L43.0869 160.264L62.3482 170.094L108.577 123.19Z" fill="black"/>
<path d="M308.845 85.8836L307.516 86.8577L307.413 86.9369L304.133 89.3463L303.562 89.7628L303.238 90.0003L300.811 91.7866H300.808L299.782 92.5404L295.27 95.8516L295.266 95.855L277.544 108.873L266.436 117.03L262.451 119.959L260.265 121.563L260.034 121.732L256.627 124.241H256.623L249.922 129.163L248.387 130.289L243.633 133.782L234.732 140.318L175.255 184.001H173.686L233.572 140.016L242.284 133.617L247.382 129.872L248.903 128.757L255.494 123.914L259.167 121.219L259.435 121.016L260.86 119.97H260.864L265.655 116.448L276.869 108.215L299.796 91.3736L302.168 89.632L302.932 89.0744C302.932 89.0744 302.932 89.0744 302.935 89.0744L303.586 88.5925L307.296 85.8664H307.3L308.294 85.1333L308.845 85.8836Z" fill="black"/>
<path d="M265.941 68.8961L265.087 69.5225L265.084 69.526L258.241 74.5513L249.688 80.8329L249.344 81.0842L245.922 83.5968L234.127 92.2637L232.884 93.1724L231.008 94.5526L225.807 98.3698L220.221 102.476L192.899 122.543L191.419 123.627L187.516 126.498H187.512L186.421 127.303H186.418L174.205 136.269L169.982 139.371L168.261 140.637L167.504 141.191L167.215 141.405L167.184 141.425L158.71 147.652L158.706 147.655L152.635 152.113L151.781 152.739L149.358 154.519L146.274 156.784L138.013 162.852L109.218 183.999H107.645L137.184 162.308L146.274 155.63L146.821 155.228L146.825 155.224L147.251 154.911L147.255 154.908L151.471 151.813L155.791 148.64L155.794 148.636L166.771 140.575L167.077 140.348L167.366 140.138L167.679 139.908L169.104 138.861L175.073 134.476H175.076L184.535 127.53L185.629 126.725L189.533 123.858L189.536 123.854L191.815 122.185L219.326 101.977L225.157 97.6951L230.389 93.8539L232.316 92.4358L233.359 91.6717L245.637 82.6537L248.115 80.8329L248.673 80.4233L257.171 74.183L264.01 69.1611L265.043 68.4039L265.39 68.1458L265.941 68.8961Z" fill="black"/>
<path d="M223.034 51.913L220.934 53.455L220.741 53.5995H220.738L220.514 53.7613H220.511L219.874 54.2329L213.245 59.0998L211.785 60.1737L211.345 60.4973L209.486 61.8637L207.786 63.1132H207.782L186.838 78.4953L183.066 81.2662L181.259 82.5948L179.844 83.6342L174.801 87.3343L159.003 98.9372V98.9407L151.671 104.327L149.63 105.828C149.63 105.828 149.627 105.828 149.623 105.828L149.572 105.866H149.568L148.422 106.709L144.195 109.814L140.299 112.674L139.741 113.087H139.738L130.544 119.837L128.968 120.997L128.132 121.61L124.621 124.188L124.339 124.398L120.291 127.368L114.271 131.791L113.379 132.445H113.376H113.372L89.3441 150.099L63.3296 169.202L62.9545 169.481H62.9476L62.2179 170.021L45.6344 182.199L43.1872 183.995H41.6211L61.292 169.549L64.0972 167.488L67.0676 165.305L88.4801 149.579L112.361 132.039L112.381 132.025L114.216 130.676L119.967 126.456L123.516 123.847L123.957 123.523L127.433 120.973L128.331 120.312L129.763 119.259L138.268 113.008H138.272L140.767 111.177L142.973 109.556H142.977L144.109 108.723L146.409 107.036H146.412L154.191 101.319L173.108 87.4273H173.111L178.326 83.5929L180.887 81.7102L182.005 80.891L186.841 77.3388L208.877 61.1547L209.324 60.8243H209.328L211.538 59.2031H211.541L212.178 58.7315L214.47 57.045C214.47 57.045 214.484 57.0346 214.494 57.0277L215.985 55.9332C215.985 55.9332 215.995 55.9263 215.998 55.9229L218.8 53.868L219.003 53.7166L219.97 53.0075H219.974L222.487 51.1592L223.037 51.9095L223.034 51.913Z" fill="black"/>
<path d="M180.129 34.9283L179.644 35.2829L179.152 35.6477L178.835 35.8818H178.832L178.429 36.1778L177.951 36.5289L177.304 37.0038L176.584 37.5339L176.402 37.6647L174.082 39.3685L172.715 40.3735L168.75 43.2889L167.301 44.3525L163.099 47.4399H163.095L162.754 47.6946C162.754 47.6946 162.754 47.6912 162.751 47.6946L162.372 47.9734H162.369L158.634 50.7201L158.177 51.054L156.046 52.6201L141.572 63.2489L139.576 64.7152L127.801 73.3614L127.636 73.4854L125.485 75.0652L119.096 79.7566L116.401 81.7358L115.975 82.049L110.739 85.8937L100.744 93.2354L89.4954 101.496L82.9178 106.329L79.0456 109.172L72.1582 114.231L63.5808 120.53L62.1937 121.546L59.4573 123.559L58.4557 124.292L55.7882 126.251L52.2119 128.881L48.739 131.428L47.2211 132.543L38.1687 139.193L34.2586 142.063L34.0039 142.253V141.096L34.2896 140.886L39.1738 137.3L48.7218 130.288L55.4784 125.325L58.4557 123.139L60.0493 121.969L62.2969 120.317L63.6014 119.357L69.0845 115.329L77.9166 108.845L81.8783 105.933L82.6252 105.386L88.2391 101.262L100.331 92.3853L110.767 84.72L114.453 82.0111L115.503 81.2401L118.246 79.2266L125.165 74.1462L126.948 72.8348L127.829 72.1877L138.461 64.3779L140.523 62.8634L155.082 52.1726L156.851 50.8716L157.395 50.4723L159.722 48.7651H159.725L159.801 48.7066H159.805L160.483 48.204L164.496 45.2543H164.499L165.608 44.442L177.913 35.4033L178.026 35.3207L178.35 35.0798H178.353L178.808 34.7459C178.808 34.7459 178.811 34.7459 178.811 34.7425L178.928 34.6564H178.932L179.582 34.178L180.133 34.9283H180.129Z" fill="black"/>
<path d="M405.733 75.8738V98.7113L349.123 80.8337L345.526 79.6978L319.574 71.5025L309.726 68.391L305.341 67.0073L298.805 64.9421L296.908 64.3432L294.42 63.5584L269.472 55.6797L264.54 54.124L230.64 43.416H230.633L229.483 43.0511L227.914 42.5555L224.981 41.6296L223.704 41.2269H223.701L218.796 39.6746H218.793L216.37 38.9104L213.33 37.9501L212.005 37.5302L205.345 35.4271L204.206 35.0692L201.359 34.1674H201.356L197.201 32.856L194.258 31.9267L186.837 29.5827L185.949 29.3039L182.149 28.1026L181.623 27.9374L176.119 26.1992H176.116L171.366 24.6985L170.633 24.4645L160.382 21.229L159.556 20.9674L153.516 19.0606V-105.656L164.915 -103.367L165.535 -103.243L182.229 -99.8941L182.848 -99.7702L186.837 -98.9717L198.599 -96.6105V11.9081L199.284 12.1215L218.276 17.9867L219.44 18.3446L247.581 27.0356L248.442 27.3006L250.493 27.934L255.016 29.3314L255.574 29.5035L255.649 29.5276L263.47 31.9404L269.001 33.6511L273.389 35.0038L274.721 35.4168L282.256 37.7436L288.365 39.6298L292.465 40.8965L293.091 41.0892L293.291 41.1512L293.924 41.3473L299.603 43.0993L316.917 48.4481L320.376 49.5152L321.367 49.8215H321.371L328.557 52.0416L329.17 52.2309L336.205 54.4028L336.801 54.5886L337.672 54.8571L337.692 54.864L338.264 55.0395L342.955 56.4886L343.303 56.5953L344.6 56.9946L349.072 58.3783L349.664 58.5607L349.729 58.5813L350.324 58.7638L351.67 59.1802L351.839 59.2319L371.276 65.2347L371.871 65.4171L372.119 65.4928L372.711 65.6752L405.73 75.8738H405.733Z" fill="#CE3F3F"/>
<path d="M304.628 57.9651L163.497 13.777L163.501 13.5464L165.101 -118.701L165.721 -118.691L164.12 13.3227L304.814 57.3731L304.628 57.9651Z" fill="#812611"/>
<path d="M140.402 -187.733V56.1512L134.548 58.5021L130.049 60.3057L127.743 61.2316L118.019 65.1314L117.341 65.4033L113.965 66.7594L113.169 67.0761L112.512 67.3411L111.159 67.8815L110.433 68.1775L109.814 68.4253L95.0233 74.3593L91.5573 75.7498L91.4506 75.7911L86.5079 77.7737L80.8906 80.0282L80.1402 80.3277L77.3178 81.4601L75.5934 82.1519L68.6475 84.9399V-169.147L91.7397 -180.416L106.733 -187.733H140.402Z" fill="black"/>
<path d="M312.442 156.065C312.442 156.065 307.148 157.948 303.654 155.931C303.654 155.931 299.242 153.721 293.194 151.728C287.147 149.735 273.695 151.873 262.44 149.106C251.185 146.338 246.259 140.225 239.455 140.745C232.65 141.265 225.002 136.088 224.916 135.121L222.369 130.388C222.369 130.388 188.575 123.077 178.728 116.541C178.728 116.541 130.062 124.437 113.103 119.236C96.1445 114.035 68.6396 106.184 68.6396 106.184L98.0307 81.605L190.974 83.9111C190.974 83.9111 212.173 98.4362 222.754 103.83C233.779 109.451 244.883 120.857 244.883 120.857L258.878 124.895L312.442 156.069V156.065Z" fill="black"/>
<path d="M81.0545 93.9753L80.6553 99.8404C80.6553 99.8404 127.328 108.748 141.823 109.946C141.823 109.946 160.265 99.9643 167.872 97.1694C175.478 94.3745 194.753 85.3634 194.753 85.3634L149.471 69.4925C149.471 69.4925 137.833 61.1526 125.848 63.7134C113.863 66.2743 94.8397 67.4652 89.3291 73.5919C83.815 79.7151 81.0511 93.9753 81.0511 93.9753H81.0545Z" fill="black"/>
<path d="M100.296 92.3268C101.869 95.8789 104.878 98.5947 108.571 99.7959C116.749 102.45 131.732 106.945 141.82 107.778C141.82 107.778 160.262 97.7961 167.869 95.0012C170.127 94.1717 173.411 92.9877 176.915 91.7279C183.114 89.5044 183.269 80.7893 177.149 78.349L149.472 67.3209C149.472 67.3209 137.835 58.981 125.85 61.5418C118.563 63.0976 109.325 71.0623 103.201 77.0617C99.1433 81.0406 97.9972 87.126 100.293 92.3234L100.296 92.3268Z" fill="#CDDEFF"/>
<g style="mix-blend-mode:multiply">
<path d="M106.808 76.8169C109.834 77.3366 118.008 83.4599 121.106 83.5941C119.55 85.112 116.614 85.4734 114.811 87.2289C112.845 89.1391 111.644 91.2732 110.708 93.6516C113.307 88.9189 120.452 86.2926 125.447 85.8452C123.55 88.3028 122.662 91.7103 122.036 94.8425C123.271 91.2869 127.515 87.0086 130.582 86.4234C133.755 85.8177 137.37 86.8261 140.529 87.1256C144.057 87.4595 147.561 87.7004 151.172 87.7004C154.838 87.7004 160.324 87.3252 162.647 83.9556C149.072 85.2704 136.007 78.679 124.989 71.5954C122.07 69.7195 119.048 67.971 115.971 66.3154C111.334 69.4752 106.757 73.5918 103.222 77.0613C104.585 76.8788 105.924 76.6689 106.815 76.8203L106.808 76.8169Z" fill="#727272"/>
</g>
<path d="M149.464 -187.733C147.805 -184.374 144.542 -177.783 140.402 -169.543C133.717 -156.243 124.748 -138.651 116.552 -123.417C113.644 -118.009 110.835 -112.898 108.261 -108.386C107.741 -107.477 107.235 -106.592 106.736 -105.735C106.736 -105.735 106.774 -105.14 106.839 -104.021C107.021 -100.724 107.417 -92.8622 107.675 -82.2058C108.027 -67.5293 108.116 -47.5451 107.018 -26.8589L106.977 -26.1223C106.977 -26.1223 106.973 -26.1223 106.977 -26.1188C105.8 -4.51355 103.318 17.7939 98.4819 35.582C98.3374 36.1224 98.1894 36.6559 98.0379 37.186C97.945 37.5164 97.8521 37.8434 97.7591 38.1669C96.5785 42.3903 95.5941 46.3175 94.7887 49.9695C94.2449 52.4133 93.7837 54.7366 93.3913 56.9395C93.2708 57.6175 93.1572 58.2853 93.0471 58.9393C93.0333 59.0288 93.0195 59.1183 93.0058 59.2078C92.5101 62.2539 92.159 65.0591 91.9284 67.644C91.7976 69.069 91.7047 70.4286 91.6427 71.7228C91.5911 72.8311 91.5636 73.8878 91.5567 74.8997C91.5533 75.1889 91.5533 75.4711 91.5567 75.7499C91.5739 80.0076 91.9766 83.4289 92.5686 86.1756C92.6065 86.3477 92.6444 86.5129 92.6822 86.6782C93.319 89.4317 92.8027 92.1784 91.45 94.402C89.9906 96.8113 87.5468 98.6115 84.5351 99.1519C83.499 99.3377 82.4286 99.5305 81.3375 99.7233C81.1895 99.7474 81.038 99.7749 80.89 99.8024C80.8109 99.8127 80.7351 99.8265 80.656 99.8403C79.9504 99.9642 79.2379 100.088 78.5185 100.212C78.1192 100.281 77.72 100.35 77.3172 100.419C77.0832 100.456 76.8526 100.498 76.6185 100.536C76.1091 100.622 75.5997 100.708 75.0903 100.797H75.0869C74.278 100.931 73.4691 101.066 72.6603 101.196C71.249 101.427 69.8482 101.651 68.4783 101.864C66.9087 102.105 65.377 102.332 63.9176 102.535C61.9419 102.814 60.0971 103.048 58.4518 103.227C57.6532 103.317 56.9063 103.389 56.2145 103.447C56.2145 103.447 57.3504 105.582 58.4518 108.604C59.6943 112.018 60.8887 116.568 60.3483 120.471C60.2795 120.984 60.1797 121.483 60.0454 121.969C59.894 122.519 59.6978 123.053 59.4534 123.559C59.1815 124.123 58.8511 124.653 58.4518 125.146C57.8322 125.91 57.0509 126.581 56.0734 127.125C55.6122 127.383 55.1096 127.614 54.5589 127.813C53.7569 128.102 52.9722 128.46 52.208 128.88C50.9999 129.531 49.84 130.326 48.7317 131.224C48.2154 131.644 47.7094 132.085 47.2172 132.542C40.051 139.199 35.2426 149.728 34.21 152.124C34.1928 152.165 34.1755 152.2 34.1618 152.234C34.148 152.268 34.1342 152.299 34.1205 152.33C34.0585 152.478 34.0207 152.571 34.0069 152.606C34.0034 152.609 34.0034 152.613 34.0034 152.616H34L34.2547 142.063L34.2857 140.886L35.3596 96.4706L42.2401 -187.733H149.464Z" fill="#FC823A"/>
<path d="M128.014 -187.733C127.598 -178.881 125.532 -147.683 116.552 -123.417C114.807 -118.694 112.797 -114.233 110.484 -110.255C110.484 -110.255 110.429 -109.604 110.319 -108.386C110.312 -108.313 110.305 -108.241 110.298 -108.165C109.94 -104.169 109.059 -94.7381 107.675 -82.2059C104.209 -50.8632 97.587 -0.138813 88.0872 33.2724C85.4644 42.5038 83.6298 50.8127 82.3873 58.2371C82.0878 60.02 81.8228 61.7479 81.5922 63.4276C81.3857 64.918 81.2032 66.3636 81.0449 67.7714C80.9898 68.2464 80.9382 68.7145 80.89 69.1757C80.6353 71.6092 80.4495 73.9153 80.3255 76.1044C80.2601 77.1921 80.2085 78.2453 80.1741 79.2676C80.1603 79.629 80.15 79.98 80.1397 80.3277C80.088 82.1588 80.0777 83.8936 80.1053 85.532C80.1638 89.6176 80.4322 93.1077 80.7902 96.0265C80.8177 96.2468 80.8453 96.4534 80.8728 96.6599C80.8763 96.7081 80.8831 96.7528 80.89 96.7976C81.0277 97.8542 81.1792 98.8283 81.3375 99.7232C81.3513 99.8093 81.365 99.8953 81.3822 99.9779C81.8022 102.349 82.2565 104.143 82.6213 105.385C82.728 105.747 82.8244 106.06 82.9139 106.328C83.1721 107.117 83.3373 107.502 83.3373 107.502C83.3373 107.502 82.3494 108.39 80.594 109.622C78.639 110.989 75.7271 112.775 72.1543 114.231C71.1768 114.627 70.1511 114.999 69.0806 115.329C67.518 115.818 65.8624 116.217 64.1311 116.479C63.9934 116.499 63.8591 116.52 63.7215 116.541C63.6974 116.541 63.6767 116.548 63.6526 116.551C63.3669 116.589 63.0778 116.627 62.7887 116.658C62.534 116.685 62.2793 116.709 62.0246 116.73C62.0246 116.73 61.849 118.32 60.3483 120.471C59.8664 121.16 59.2469 121.907 58.4518 122.674C57.6326 123.469 56.6275 124.285 55.3953 125.091C53.7156 126.185 51.6091 127.259 48.976 128.212C48.8762 128.247 48.7798 128.285 48.6835 128.326C44.4464 129.961 41.3727 133.455 39.1698 137.299C38.8119 137.922 38.478 138.556 38.1648 139.192C34.9259 145.763 34 152.62 34 152.62V-187.733H128.014Z" fill="black"/>
<path d="M120.961 -187.733C120.473 -176.939 117.65 -132.886 103.428 -108.386C103.428 -108.386 103.125 -104.882 102.526 -98.8581C100.089 -74.31 92.7476 -7.9452 81.0277 33.2725C79.4926 38.6729 78.3085 43.7567 77.4136 48.5307C77.1624 49.8731 76.9318 51.188 76.7287 52.4821C76.1435 56.1272 75.7374 59.5795 75.4758 62.8425C74.9629 69.1688 74.9974 74.7827 75.376 79.7151C75.4104 80.1728 75.4483 80.6237 75.4896 81.0677C75.5205 81.4326 75.5584 81.794 75.5928 82.152C75.6789 82.9746 75.7718 83.7766 75.8751 84.5545C76.0127 85.5905 76.1642 86.5921 76.3294 87.5559C76.622 89.2975 76.9593 90.9221 77.3173 92.4263C77.5066 93.2179 77.7028 93.9786 77.9024 94.7049C78.2018 95.7925 78.3912 96.8802 78.4772 97.961C78.5426 98.7216 78.5564 99.4685 78.5185 100.212C78.4703 101.255 78.3258 102.281 78.0986 103.282C77.8989 104.143 77.6374 104.976 77.3173 105.788C76.9731 106.666 76.5531 107.512 76.0747 108.318C75.4379 109.385 74.691 110.38 73.8477 111.285C71.3626 113.945 68.0239 115.839 64.1311 116.479C63.9934 116.499 63.8591 116.52 63.7215 116.541C63.6974 116.541 63.6767 116.548 63.6526 116.551C63.3669 116.589 63.0778 116.627 62.7887 116.658C62.534 116.685 62.2793 116.709 62.0246 116.73C62.0246 116.73 62.386 118.21 62.293 120.317C62.2793 120.706 62.2448 121.115 62.1898 121.545C61.8938 123.931 60.9507 126.818 58.4518 129.259C58.056 129.648 57.6188 130.026 57.137 130.391C55.9185 131.31 54.4212 132.133 52.5867 132.797C51.2512 133.283 49.9845 133.895 48.7902 134.604C40.1783 139.712 35.2666 149.783 34.21 152.124C34.1928 152.165 34.1755 152.2 34.1618 152.234C34.148 152.268 34.1342 152.299 34.1205 152.33C34.0585 152.478 34.0207 152.571 34.0069 152.606C34.0034 152.609 34.0034 152.613 34.0034 152.616H34V-187.733H120.961Z" fill="#FC823A"/>
<path d="M92.2486 -187.733C92.1728 -186.257 92.0214 -183.761 91.7392 -180.416C90.2625 -162.652 85.1994 -120.845 68.6469 -79.411C67.9104 -77.5695 67.1531 -75.7281 66.3718 -73.8901C65.9347 -72.8644 65.4906 -71.8386 65.0397 -70.8129C65.0397 -70.8129 64.9984 -70.6615 64.9158 -70.3517C64.699 -69.5119 64.2102 -67.5018 63.5459 -64.0908C62.503 -58.735 61.0264 -49.9305 59.4982 -36.8028C59.5016 -36.7993 59.4982 -36.7959 59.4982 -36.7959C56.8065 -13.6417 53.9635 22.9637 53.0617 77.784C53.041 79.1849 53.0169 80.5996 52.9963 82.0245C52.9618 84.5578 52.9274 87.129 52.8999 89.738C52.807 98.5839 52.7622 107.87 52.776 117.615C52.776 117.615 53.874 120.575 55.3953 125.091C55.4229 125.166 55.447 125.245 55.4745 125.325C55.5743 125.627 55.6776 125.934 55.7843 126.25C55.8806 126.536 55.977 126.829 56.0734 127.125C56.4176 128.157 56.7721 129.252 57.137 130.391C57.5672 131.734 58.0078 133.145 58.4518 134.597C59.8802 139.282 61.3224 144.421 62.4445 149.308C62.9401 151.466 63.3704 153.573 63.7077 155.573C63.7421 155.752 63.7697 155.924 63.7972 156.096C64.5716 160.835 64.8057 164.914 64.0932 167.492C63.9452 168.029 63.7593 168.501 63.5253 168.9C63.4633 169.007 63.3979 169.11 63.3256 169.206C63.0537 169.588 62.7302 169.888 62.3481 170.094C62.3481 170.094 52.5626 177.959 45.6304 182.203C44.4498 182.926 43.3553 183.542 42.4019 184H34V-187.733H92.2486Z" fill="black"/>
<path d="M214.429 67.5313C214.429 67.5313 234.334 64.0549 243.968 58.2104C243.968 58.2104 240.967 68.0648 246.023 83.9117C251.079 99.7551 258.345 95.9655 258.345 95.9655C258.345 95.9655 266.995 94.7367 268.437 99.9306L269.79 101.263V96.0619C269.79 94.1412 269.153 92.2722 267.983 90.7509C267.983 90.7509 269.79 53.9458 269.79 42.2569C269.79 30.5679 268.299 22.8269 244.918 29.3047C221.54 35.7825 192.111 41.9437 192.111 41.9437L214.429 67.5348V67.5313Z" fill="#3C5870"/>
<path d="M214.429 67.5317C214.429 67.5317 234.334 64.0553 243.968 58.2109C243.968 58.2109 240.966 68.0652 246.023 83.9121C251.079 99.7555 258.207 102.588 258.207 102.588C258.207 102.588 263.291 105.755 268.433 99.931L268.22 97.6111C268 95.188 267.239 92.844 266 90.7513C266 90.7513 264.344 55.681 264.344 43.9921C264.344 32.3031 261.195 27.6702 237.817 34.148C214.439 40.6258 192.107 41.9407 192.107 41.9407L214.425 67.5317H214.429Z" fill="black"/>
<path d="M127.309 80.3132L130.669 81.783C130.669 81.783 147.758 88.1093 168.265 87.6102C188.773 87.1111 210.237 82.8913 210.237 82.8913C210.237 82.8913 210.87 84.3644 213.875 84.4815C213.875 84.4815 214.684 86.9115 217.806 87.0251C217.806 87.0251 221.389 95.9295 231.45 103.213C241.511 110.499 255.964 119.4 261.977 122.87C267.99 126.339 271.459 129.344 271.459 129.344H273.194C273.194 129.344 270.998 127.726 272.155 125.527C273.311 123.331 282.329 116.065 282.329 116.065L284.064 117.222C284.064 117.222 286.377 116.991 283.255 114.33C280.133 111.67 247.176 78.8091 236.768 68.7482C226.359 58.6873 224.335 48.2547 201.498 51.9823C178.66 55.7066 155.41 50.0342 155.41 50.0342L132.231 57.1729L123.558 69.5605L127.302 80.3098L127.309 80.3132Z" fill="#3C5870"/>
<path d="M277.643 111.672C270.58 114.498 268.098 118.263 268.098 118.263L259.235 111.692C259.235 111.692 249.818 107.345 238.99 99.2117C228.161 91.0783 223.707 75.4517 223.707 75.4517C219.425 76.7356 216.644 81.6025 216.644 81.6025C218.572 69.9893 229.09 64.1035 229.09 64.1035C214.861 66.3649 213.006 80.3118 213.006 80.3118L213.433 75.2383C215.787 64.964 221.78 59.0576 221.78 59.0576C217.419 61.2811 214.507 65.0088 212.7 68.1341C212.022 69.3044 210.235 68.8259 210.239 67.4732V67.3252C210.256 62.4101 212.362 59.0576 212.362 59.0576C201.231 60.8578 189.89 68.7502 189.89 68.7502C189.89 68.5953 189.89 68.4404 189.9 68.2821C190.107 63.2878 193.49 58.9819 198.219 57.3607L218.493 50.0327C214.951 49.4442 207.151 51.0619 201.506 51.9809C178.669 55.7051 155.418 50.0327 155.418 50.0327L132.24 57.1714L123.566 69.5591L127.311 80.3084L130.671 81.7781C130.671 81.7781 147.76 88.1044 168.267 87.6053C188.775 87.1063 210.239 82.8864 210.239 82.8864C210.239 82.8864 210.872 84.3596 213.877 84.4766C213.877 84.4766 214.686 86.9066 217.808 87.0202C217.808 87.0202 221.391 95.9246 231.452 103.208C241.513 110.494 255.965 119.395 261.979 122.865C263.187 123.564 264.292 124.242 265.29 124.882C265.403 124.693 265.52 124.503 265.637 124.311C270.377 116.669 277.64 111.661 277.64 111.661L277.643 111.672Z" fill="black"/>
<path d="M125.209 -43.3511L114.639 -35.1179C107.532 -29.5832 103.374 -21.0781 103.374 -12.067L99.1744 23.8363L98.3862 27.9047C97.1746 34.1484 99.1778 40.5815 103.721 45.0285L116.945 50.04L113.872 64.1074C114.436 70.2548 112.123 75.3385 117.334 78.6497C120.036 80.3673 122.838 82.0676 124.79 83.0451C129.829 85.5647 130.668 81.7854 130.668 81.7854L127.309 80.3157C127.309 80.3157 126.049 60.3694 139.067 55.9602C152.084 51.5511 187.358 38.9534 187.358 38.9534L183.788 30.555C192.187 25.096 193.867 30.555 193.867 30.555C193.867 30.555 199.326 23.4164 195.966 19.2171C192.607 15.0179 188.618 10.3988 188.618 10.3988C188.618 10.3988 181.479 -25.2945 178.539 -32.8531C175.6 -40.4116 163.842 -43.3511 163.842 -43.3511H125.209Z" fill="#FFD688"/>
<path d="M125.209 -43.3511L114.639 -35.1179C107.532 -29.5832 103.374 -21.0781 103.374 -12.067L99.1744 23.8363L98.3862 27.9047C97.1746 34.1484 99.1778 40.5815 103.721 45.0285L113.104 48.35L112.185 62.3761C112.75 68.5234 112.127 75.3351 117.338 78.6497C120.04 80.3673 122.841 82.0676 124.793 83.0451C129.832 85.5647 130.672 81.7854 130.672 81.7854L127.313 80.3157C127.313 80.3157 126.053 60.3694 139.07 55.9602C152.088 51.5511 187.361 38.9534 187.361 38.9534L183.792 30.555C192.19 25.096 193.87 30.555 193.87 30.555C193.87 30.555 199.329 23.4164 195.97 19.2171C192.61 15.0179 188.621 10.3988 188.621 10.3988C188.621 10.3988 181.482 -25.2945 178.543 -32.8531C175.603 -40.4116 163.846 -43.3511 163.846 -43.3511H125.213H125.209Z" fill="#068BEE"/>
<path d="M149.747 25.1575L149.647 29.4049L154.556 31.6904L148.656 30.2585L148.315 24.063L149.747 25.1575Z" fill="#002661"/>
<path d="M151.044 30.8413L151.774 35.0405L158.764 35.6497L152.724 34.149L152.569 30.8413H151.044Z" fill="#002661"/>
<path d="M154.751 30.0166L158.031 30.8393L155.174 29.4866L154.751 30.0166Z" fill="#002661"/>
<path d="M157.663 34.1487L160.981 35.0401L158.245 33.7322L157.663 34.1487Z" fill="#002661"/>
<path d="M155.54 35.0396L156.92 38.096L158.559 38.1064L156.641 35.1222L155.54 35.0396Z" fill="#002661"/>
<path d="M162.08 24.2347L161.98 28.4821L166.885 30.771L160.989 29.3391L160.648 23.1401L162.08 24.2347Z" fill="#002661"/>
<path d="M163.377 29.9175L164.107 34.1201L171.097 34.7294L165.057 33.2287L164.902 29.9175H163.377Z" fill="#002661"/>
<path d="M167.086 29.0984L170.363 29.9176L167.506 28.5684L167.086 29.0984Z" fill="#002661"/>
<path d="M169.996 33.2288L173.311 34.1202L170.578 32.8088L169.996 33.2288Z" fill="#002661"/>
<path d="M167.872 34.1199L169.266 36.9664L170.887 37.1867L168.974 34.1991L167.872 34.1199Z" fill="#002661"/>
<path d="M171.411 21.7193L171.345 25.9667L174.474 28.2522L170.712 26.8203L170.495 20.6248L171.411 21.7193Z" fill="#002661"/>
<path d="M172.237 27.4021L172.702 31.6013L177.159 32.2105L173.308 30.7098L173.211 27.4021H172.237Z" fill="#002661"/>
<path d="M174.602 26.5789L176.691 27.4015L174.87 26.0488L174.602 26.5789Z" fill="#002661"/>
<path d="M176.457 30.7099L178.574 31.6014L176.829 30.2935L176.457 30.7099Z" fill="#002661"/>
<path d="M175.104 31.6018L175.993 34.4518L177.029 34.6686L175.807 31.6844L175.104 31.6018Z" fill="#002661"/>
<path d="M152.242 18.8175L154.751 21.9428L152.659 18.0671L152.242 18.8175Z" fill="#002661"/>
<path d="M149.107 12.2506L148.294 16.9007L151.943 20.8968L147.341 17.3791L148.394 12.0991L149.107 12.2506Z" fill="#002661"/>
<path d="M152.074 24.6276L154.587 27.7494L152.494 23.8738L152.074 24.6276Z" fill="#002661"/>
<path d="M148.942 18.0597L148.13 22.7098L151.775 26.7059L147.173 23.1882L148.226 17.9082L148.942 18.0597Z" fill="#002661"/>
<path d="M138.53 25.7113L138.431 29.9552L143.335 32.2441L137.439 30.8123L137.099 24.6133L138.53 25.7113Z" fill="#002661"/>
<path d="M139.828 31.3906L140.558 35.5933L147.548 36.2025L141.508 34.7018L141.353 31.3906H139.828Z" fill="#002661"/>
<path d="M144.322 35.5945L145.703 38.651L147.337 38.6613L145.424 35.6771L144.322 35.5945Z" fill="#002661"/>
<path d="M137.889 12.8033L137.077 17.4534L140.725 21.4495L136.12 17.9319L137.173 12.6519L137.889 12.8033Z" fill="#002661"/>
<path d="M137.725 18.6143L136.909 23.2645L140.558 27.2571L135.956 23.7429L137.009 18.4629L137.725 18.6143Z" fill="#002661"/>
<path d="M164.555 17.7122L167.153 20.9477L164.985 16.9343L164.555 17.7122Z" fill="#002661"/>
<path d="M164.38 23.7259L166.979 26.9613L164.814 22.948L164.38 23.7259Z" fill="#002661"/>
<path d="M161.134 16.9276L160.294 21.7429L164.07 25.8802L159.303 22.2386L160.394 16.7727L161.134 16.9276Z" fill="#002661"/>
<path d="M173.49 21.3423L175.58 24.5778L173.838 20.5645L173.49 21.3423Z" fill="#002661"/>
<path d="M170.878 14.5446L170.204 19.3599L173.24 23.4972L169.405 19.8555L170.283 14.3862L170.878 14.5446Z" fill="#002661"/>
<path d="M139.875 -24.9414C139.875 -24.9414 128.007 -20.3808 121.319 -27.7501L117.189 -32.0697C117.189 -32.0697 114.466 -30.9958 110.935 -24.7005C107.407 -18.4051 103.824 24.0586 103.824 24.0586C103.824 24.0586 117.303 21.484 120.524 27.9721C120.524 27.9721 114.731 24.7057 104.192 27.831C104.192 27.831 102.096 28.6708 101.521 31.2041C101.521 31.2041 105.046 27.5935 120.266 29.1802C120.266 29.1802 108.047 29.4212 102.578 33.5481C102.578 33.5481 102.853 35.4171 105.565 37.2172C109.744 39.9846 115.261 39.6163 119.151 36.46L119.509 36.1674L118.043 39.0656C116.497 42.1152 118.339 45.7912 121.708 46.3832L130.664 47.3367L134.771 38.1844L128.42 52.3378C128.42 52.3378 128.258 55.088 123.563 54.1242C118.869 53.1605 117.299 53.7732 116.941 50.0421C116.941 50.0421 107.156 49.6669 104.195 47.7497C101.235 45.8325 99.4662 38.7283 99.4662 38.7283C97.8898 38.7386 96.6094 37.4651 96.6094 35.8886V30.6603C97.9517 22.637 103.345 -18.1641 103.345 -18.1641C103.345 -18.1641 105.035 -30.0562 120.135 -39.4011C121.925 -40.7951 124.517 -40.4372 125.859 -38.606L130.664 -32.0629L139.875 -24.9345V-24.9414Z" fill="#002661"/>
<path d="M172.784 -21.7044C175.527 -15.4366 179.444 -5.24835 174.154 2.58903C174.154 2.58903 173.82 5.76252 173.627 8.2373C173.431 10.7121 172.997 21.396 173.868 23.5507C174.739 25.7053 180.425 29.0303 179.837 31.6806C179.248 34.3275 177.682 37.0191 177.682 37.0191L183.365 35.9349C183.365 35.9349 184.931 30.9302 181.406 27.7292C177.878 24.5282 175.723 21.9811 175.723 21.9811C175.723 21.9811 178.467 14.4604 186.5 13.5173C186.5 13.5173 181.623 8.97389 176.725 16.4189C176.725 16.4189 174.639 7.41811 175.923 4.15168C179.155 -4.08841 181.017 -8.7867 176.904 -15.2473C172.791 -21.7079 170.048 -27.9791 172.791 -21.7079L172.784 -21.7044Z" fill="#002661"/>
<path d="M143.155 45.8496L128.42 52.3378C128.42 52.3378 127.615 54.8951 123.564 54.1241C122.152 53.8557 120.92 53.6526 119.915 53.4977C118.204 53.2395 116.941 51.7698 116.941 50.0385L110.78 49.4981L109.951 61.2697C109.785 63.624 109.923 65.9955 110.457 68.2913C111.441 72.5422 113.427 76.1631 117.334 78.6482C120.036 80.3658 122.837 82.0661 124.789 83.0402C129.828 85.5597 130.668 81.7804 130.668 81.7804L127.308 80.3107C127.308 80.3107 126.049 60.3644 139.066 55.9553C139.066 55.9553 144.542 50.8474 158.245 47.1404L152.924 45.8462H143.159L143.155 45.8496Z" fill="#002661"/>
<path d="M143.156 45.8496L128.421 52.3378C128.421 52.3378 127.615 54.8951 123.564 54.1241C122.153 53.8557 120.921 53.6526 119.916 53.4977C118.205 53.2395 116.942 51.7698 116.942 50.0385L110.781 49.4981L110.491 53.5872C110.457 54.0691 110.705 54.7093 111.118 55.4252C113.176 58.9877 117.771 60.096 121.31 58.0067C126.235 55.0982 136.575 51.0333 158.245 47.1404L152.924 45.8462H143.159L143.156 45.8496Z" fill="black"/>
<path d="M130.668 81.7852C130.668 81.7852 129.831 83.0965 128.424 82.8694C127.016 82.6422 127.308 80.3154 127.308 80.3154L130.668 81.7852Z" fill="black"/>
<path d="M202.14 34.2482L241.097 39.5764L192.107 57.5538L155.688 52.5733C154.331 52.3874 154.128 48.6529 155.412 48.1814L196.905 34.8162C198.578 34.2035 200.375 34.0073 202.14 34.2482Z" fill="black"/>
<path d="M202.14 32.3896L241.097 37.7178L192.107 55.6952L155.688 50.7147C154.331 50.5288 154.128 48.6529 155.412 48.1814L196.905 32.9575C198.578 32.3448 200.375 32.1487 202.14 32.3896Z" fill="#A9C9FF"/>
<path d="M185.843 39.4546L193.825 40.5457L184.439 43.9911L176.457 42.9L185.843 39.4546Z" fill="#3C5870"/>
<path d="M205.015 37.6682L226.868 40.852L196.193 53.4841L174.344 50.3037V49.3744L205.015 37.6682Z" fill="black"/>
<path d="M205.015 36.7395L226.868 39.9233L196.193 52.5554L174.344 49.375L205.015 36.7395Z" fill="#3C5870"/>
<path d="M176.068 37.4891L180.195 39.6472C180.195 39.6472 182.76 42.0945 183.837 42.4594C184.914 42.8242 185.819 42.4594 185.819 42.4594L187.437 41.8226C188.019 41.4612 188.126 40.6592 187.654 40.1601L185.816 37.3824L185.093 35.1968C185.093 35.1968 178.698 36.2466 176.068 37.4891Z" fill="#F29267"/>
<path d="M193.866 29.6314C193.866 29.6314 192.11 25.2635 185.567 26.63C181.516 27.4767 179.84 30.5091 179.84 30.5091L179.093 34.0371C179.093 34.0371 178.625 36.1161 177.582 38.1055C175.169 38.8903 172.229 40.1122 172.229 40.1122L174.333 41.2446L193.948 34.1507C193.948 34.1507 194.75 32.9701 193.873 29.6348L193.866 29.6314Z" fill="#F29267"/>
<path d="M179.596 39.3387L175.721 37.0188L172.224 40.1132L174.327 41.2421L179.596 39.3387Z" fill="black"/>
<path d="M261.009 5.56198L239.968 39.2038L190.979 57.1813L211.593 22.7237C212.725 20.8306 214.473 19.3815 216.549 18.6208L257.908 3.44516C259.384 2.90477 261.821 4.21273 261.012 5.56198H261.009Z" fill="black"/>
<path d="M261.043 6.23935L242.25 37.6543C241.506 38.8968 240.357 39.8503 238.997 40.3493L192.11 57.5558L212.724 23.0982C213.857 21.2051 215.605 19.756 217.681 18.9953L259.04 3.81965C260.516 3.27926 261.855 4.89354 261.046 6.2428L261.043 6.23935Z" fill="#A9C9FF"/>
<path d="M134.774 38.1854L128.424 52.3388C128.424 52.3388 135.683 53.4265 150.38 49.4372L163.856 47.7954C166.413 48.0123 168.926 47.0485 170.688 45.1864L176.106 39.4555L179.682 37.3008C179.682 37.3008 185.223 38.3678 187.763 36.9153C187.763 36.9153 188.459 36.5539 187.763 35.9206C187.763 35.9206 187.912 34.8674 186.999 33.8141C186.087 32.7609 181.943 30.1622 181.943 30.1622H180.68C180.68 30.1622 179.417 28.9678 178.432 29.0401L177.448 29.1089C177.448 29.1089 174.712 28.2657 172.884 27.8457C171.056 27.4258 169.445 28.3379 166.847 31.5665C164.248 34.7951 161.722 38.0959 161.722 38.0959L134.774 38.1854Z" fill="#F29267"/>
<path d="M130.668 47.3384L128.424 52.3396C128.424 52.3396 135.683 53.4273 150.38 49.438L163.856 47.7962C166.413 48.0131 168.926 47.0493 170.688 45.1872L176.106 39.4563L179.682 37.3016C179.682 37.3016 185.223 38.3686 187.763 36.9161C187.763 36.9161 188.459 36.5547 187.763 35.9214C187.763 35.9214 183.372 35.9386 181.991 35.7493C179.448 35.4017 176.061 33.7908 173.466 37.0194C171.937 38.9193 169.108 41.1015 167.043 42.5713C165.477 43.6865 163.642 44.3611 161.728 44.5332L142.639 46.2576C138.051 46.6707 134.244 42.7606 134.781 38.1862L130.675 47.3384H130.668Z" fill="#DE624C"/>
<path d="M132.316 24.0885C131.231 22.8012 130.674 21.9683 130.674 21.9683C130.674 21.9683 130.887 22.8735 132.316 24.0885Z" fill="#002661"/>
<path d="M161.729 38.1228H160.252C160.741 38.1366 161.229 38.1366 161.729 38.1228Z" fill="#002661"/>
<path d="M141.516 34.729L138.012 30.5436C138.012 30.5436 138.112 27.5491 137.104 24.6406C136.481 22.8404 137.851 21.0644 137.014 18.4863C136.598 17.2025 137.592 14.1667 137.183 12.6763C136.532 10.3117 137.265 9.48559 136.763 6.57712C136.439 4.70468 134.57 2.53624 132.984 0.271417C131.779 -1.44957 130.739 -3.22564 130.674 -4.97072C130.288 -15.1452 119.519 -19.9502 119.519 -19.9502C124.554 -17.9263 129.339 -11.5174 126.127 0.770487C126.106 1.16631 126.079 1.56214 126.051 1.95453C125.638 7.85751 124.788 13.7846 125.411 19.6669C126.034 25.5527 128.375 31.5624 133.118 35.1008C135.1 36.5808 137.362 37.5342 139.744 38.1916L160.244 38.1228C153.002 38.0058 148.62 36.6324 145.426 35.6962C142.232 34.76 140.17 34.2265 141.509 34.7221L141.516 34.729Z" fill="#002661"/>
<path d="M104.203 27.8619C104.203 27.8619 111.294 26.2235 114.801 27.084C118.308 27.9445 120.398 28.4333 120.738 28.4884C120.738 28.4884 119.485 22.6336 104.203 27.8619Z" fill="black"/>
<path d="M125.881 4.23631C125.98 3.47907 126.005 2.7184 126.056 1.95772C126.084 1.56534 126.108 1.16951 126.132 0.773682C125.884 1.72711 125.591 2.71153 125.244 3.73724C120.398 17.9732 121.124 29.2354 121.124 29.2354C116.763 28.9944 113.107 29.8721 113.107 29.8721L113.476 29.879C118.167 29.9616 122.772 31.0872 127.01 33.1007C127.657 33.4071 128.252 33.6445 128.706 33.7444L130.679 34.1746C134.658 34.9938 134.785 38.212 134.785 38.212L139.752 38.1948C137.37 37.5374 135.112 36.584 133.126 35.1039C129.915 32.7083 123.574 21.9659 125.884 4.23286L125.881 4.23631Z" fill="black"/>
<path d="M187.757 35.92C187.757 35.92 184.019 34.7704 182.732 34.1199C181.444 33.4693 179.259 33.2456 179.259 33.2456C179.259 33.2456 183.248 33.5657 184.084 33.8066C184.921 34.0476 186.329 35.0423 186.329 35.0423L187.76 35.9235L187.757 35.92Z" fill="#DE624C"/>
<path d="M185.013 33.4691C185.013 33.4691 181.809 32.4847 180.704 31.9237C179.599 31.3626 177.727 31.1733 177.727 31.1733C177.727 31.1733 181.148 31.4453 181.864 31.6552C182.58 31.8652 183.347 32.4779 183.347 32.4779L185.017 33.4691H185.013Z" fill="#DE624C"/>
<path d="M181.32 30.713C181.32 30.713 177.978 30.4377 176.78 30.1279C175.582 29.8181 173.71 30.035 173.71 30.035C173.71 30.035 177.111 29.5668 177.854 29.6185C178.598 29.6701 179.479 30.1038 179.479 30.1038L181.32 30.7165V30.713Z" fill="#DE624C"/>
<path d="M121.309 58.0061C121.309 58.0061 110.55 64.6388 112.47 73.5914C112.47 73.5914 105.789 67.3236 110.777 49.4976L121.306 58.0061H121.309Z" fill="black"/>
<path d="M133.347 18.834L133.202 21.1022L135.24 22.2828L135.546 20.2417L133.347 18.834Z" fill="#FC823A"/>
<path d="M134.52 24.0859L135.046 25.9652L136.53 26.7466L136.716 25.4971L134.52 24.0859Z" fill="#FC823A"/>
<path d="M186.056 41.1749L181.499 37.2545L177.399 35.1411L180.094 35.919L182.58 36.7829L186.056 41.1749Z" fill="#DE624C"/>
<path d="M165.61 129.148L168.46 150.901L220.992 143.669V141.274L216.331 123.007L165.61 129.148Z" fill="black"/>
<path d="M216.331 120.613L165.61 126.753L166.006 129.775L217.006 123.597L216.331 120.613Z" fill="#A6D467"/>
<path d="M220.992 141.273L220.252 137.996L168.01 145.063L168.461 148.505L220.992 141.273Z" fill="#4F7F06"/>
<path d="M217.007 123.597L166.007 129.776L168.01 145.065L220.252 137.998L217.007 123.597Z" fill="#A6D467"/>
<path d="M207.624 129.135C207.314 128.171 206.719 127.5 206.296 127.638L200.32 129.565C200.162 129.617 200.052 129.772 199.99 129.996C199.983 129.996 199.976 129.996 199.969 129.996L181.431 135.971C181.107 136.112 181.038 136.814 181.286 137.578C181.534 138.342 181.999 138.876 182.339 138.797H182.363L200.854 132.835C201.057 133.024 201.267 133.111 201.446 133.052L207.421 131.125C207.844 130.987 207.937 130.095 207.624 129.132V129.135Z" fill="black"/>
<path d="M201.975 129.972C201.724 129.191 201.239 128.647 200.898 128.757L182.359 134.732L183.271 137.561L201.81 131.586C202.154 131.476 202.226 130.753 201.975 129.968V129.972Z" fill="#FFB48C"/>
<path d="M183.298 137.55C183.641 137.439 183.716 136.715 183.464 135.934C183.212 135.152 182.729 134.608 182.385 134.719C182.041 134.83 181.967 135.554 182.219 136.335C182.471 137.117 182.954 137.66 183.298 137.55Z" fill="black"/>
<path d="M63.1816 62.1806V97.8567L66.7579 94.9861V59.0037L63.1816 62.1806Z" fill="#166C3B"/>
<path d="M77.3135 51.6318V87.7726L80.8897 84.902V49.5012L77.3135 51.6318Z" fill="#166C3B"/>
<path d="M63.1816 62.1806L65.7253 56.3223L78.0785 48.0857L80.8906 49.5003L63.1816 62.1806Z" fill="#06C167"/>
<path d="M64.6925 156.552L45.4277 146.722L48.8766 139.731L47.8853 81.2314L58.4522 82.8664L64.1968 87.8676L63.0851 146.443L64.6925 156.552Z" fill="#166C3B"/>
<path d="M111.499 53.3656L64.1963 87.8679L58.4516 82.8667L47.8848 81.2318L95.0157 49.8169L101.728 52.9766L111.499 53.3656Z" fill="#0E592A"/>
<path d="M95.0605 65.3574L64.1963 87.8679L58.4516 82.8667L47.8848 81.2318L95.0157 49.8169L95.0605 65.3574Z" fill="black"/>
<path d="M77.3135 70.4421V106.118L80.8897 103.248V67.2651L77.3135 70.4421Z" fill="#166C3B"/>
<path d="M91.4502 59.8913V96.0321L95.023 93.1615V57.7607L91.4502 59.8913Z" fill="#166C3B"/>
<path d="M77.3135 70.4421L79.8571 64.5838L92.2103 56.3472L95.0224 57.7618L77.3135 70.4421Z" fill="#06C167"/>
<path d="M64.7155 156.446L112.022 121.944L110.101 112.713L63.084 146.444L64.7155 156.446Z" fill="#166C3B"/>
<path d="M64.1967 87.8691L111.5 53.3667L110.102 112.713L63.085 146.445L64.1967 87.8691Z" fill="#06C167"/>
<path d="M68.4785 89.6589V113.433L75.1766 108.146L68.4785 89.6589Z" fill="black"/>
<path d="M74.0235 111.351C74.0235 111.351 68.4785 109.468 68.4785 103.834V89.6596L76.3297 84.2385V98.4126C76.3297 104.047 81.8747 105.93 81.8747 105.93L74.0235 111.351Z" fill="#FFD3BC"/>
<path d="M69.8793 92.3514C69.8311 92.3514 69.7829 92.3273 69.752 92.286C69.7038 92.2172 69.721 92.1208 69.7898 92.0691L74.4812 88.7717C74.5501 88.7236 74.6465 88.7408 74.6981 88.8096C74.7463 88.8784 74.7291 88.9748 74.6602 89.0265L69.9688 92.3239C69.9413 92.3445 69.9103 92.3514 69.8793 92.3514Z" fill="black"/>
<path d="M69.8803 94.7188C69.8321 94.7188 69.7839 94.6947 69.7529 94.6534C69.7048 94.5846 69.722 94.4882 69.7908 94.4366L74.4822 91.1392C74.5511 91.091 74.6474 91.1082 74.6991 91.177C74.7472 91.2459 74.73 91.3423 74.6612 91.3939L69.9698 94.6913C69.9423 94.712 69.9113 94.7188 69.8803 94.7188Z" fill="black"/>
<path d="M69.8803 97.0841C69.8321 97.0841 69.7839 97.06 69.7529 97.0187C69.7048 96.9498 69.722 96.8534 69.7908 96.8018L74.4822 93.5044C74.5511 93.4562 74.6474 93.4734 74.6991 93.5423C74.7472 93.6111 74.73 93.7075 74.6612 93.7591L69.9698 97.0565C69.9423 97.0772 69.9113 97.0841 69.8803 97.0841Z" fill="black"/>
<path d="M86.5251 140.199V140.206C86.2807 140.553 86.1396 140.929 86.0845 141.317C83.5477 143.789 84.8454 148.463 91.1476 150.948C97.4533 153.433 104.75 153.526 107.624 151.186C108.327 150.972 108.939 150.697 109.442 150.36L109.455 150.353C109.824 150.16 110.87 149.148 111.145 148.904C111.713 148.401 112.023 147.823 112.106 147.203L126.201 131.58C128.218 129.787 126.868 125.068 122.284 123.261C117.699 121.454 113.83 123.705 111.817 125.498L90.5625 137.332C89.6297 137.617 88.8518 138.01 88.2839 138.512C87.8399 138.908 86.6662 139.727 86.5216 140.199H86.5251Z" fill="black"/>
<path d="M106.123 105.979L109.596 128.693C109.596 131.216 113.503 133.26 118.321 133.26C123.14 133.26 127.047 131.216 127.047 128.693L130.52 105.979H106.126H106.123Z" fill="#266EF1"/>
<path d="M106.123 105.979L109.362 128.693C109.362 130.458 111.51 131.987 114.308 132.747L113.035 105.979H106.123Z" fill="black"/>
<path d="M131.206 103.992C131.206 107.455 125.437 110.26 118.323 110.26C111.208 110.26 105.439 107.455 105.439 103.992C105.439 103.648 105.374 102.261 105.484 101.93C106.479 98.9495 111.917 97.7241 118.323 97.7241C124.294 97.7241 129.65 98.9908 131.109 101.672C131.388 102.185 131.206 103.434 131.206 103.992Z" fill="black"/>
<path d="M118.323 108.711C125.438 108.711 131.206 105.905 131.206 102.444C131.206 98.982 125.438 96.1758 118.323 96.1758C111.208 96.1758 105.439 98.982 105.439 102.444C105.439 105.905 111.208 108.711 118.323 108.711Z" fill="#266EF1"/>
<path d="M118.322 106.852C125.059 106.852 130.521 104.046 130.521 100.584C130.521 97.1226 125.059 94.3164 118.322 94.3164C111.585 94.3164 106.124 97.1226 106.124 100.584C106.124 104.046 111.585 106.852 118.322 106.852Z" fill="#A9C9FF"/>
<path d="M118.324 96.7583C123.115 96.7583 127.049 98.6376 127.497 101.037C127.524 100.885 127.542 100.734 127.542 100.582C127.542 97.9665 123.415 95.8462 118.324 95.8462C113.233 95.8462 109.106 97.9665 109.106 100.582C109.106 100.737 109.124 100.889 109.151 101.037C109.599 98.6342 113.533 96.7583 118.324 96.7583Z" fill="black"/>
<path d="M118.324 105.318C120.541 105.318 120.765 103.563 123.966 102.059C126.895 100.682 127.497 101.04 127.497 101.04C127.05 98.6373 123.115 96.7615 118.324 96.7615C113.533 96.7615 109.599 98.6408 109.151 101.04C109.599 103.442 113.533 105.318 118.324 105.318Z" fill="#6DAAFB"/>
<path d="M125.977 101.673L123.646 102.771L124.707 103.098L126.586 102.159L125.977 101.673Z" fill="black"/>
<path d="M167.583 155.942L139.52 178.242L135.049 176.466L123.054 184.001H106.181L80.5352 171.947L103.214 157.807L100.536 152.871L100.399 152.62L112.25 147.044H112.253L118.108 144.29L119.512 143.63L131.738 146.762H131.741L136.416 147.96H136.419L141.207 149.185L145.01 150.162H145.014L148.583 151.075L151.471 151.815L152.634 152.114L152.93 152.19L155.422 152.827L156.118 153.006L157.58 153.381L167.583 155.942Z" fill="black"/>
<path d="M114.921 136.787L121.344 151.915L146.27 168.274V155.381L114.921 136.787Z" fill="black"/>
<path d="M174.373 141.908L167.582 155.941L146.27 168.274V155.38L174.373 141.908Z" fill="#E65300"/>
<path d="M174.374 141.909L146.27 155.381L114.921 136.788L137.032 123.113L149.365 127.47L174.374 141.909Z" fill="#FC823A"/>
<path d="M178.018 128.402L170.642 143.623L141.675 153.408L140.16 139.713L178.018 128.402Z" fill="#E65300"/>
<path d="M157.787 137.733L141.675 153.408L170.642 143.622L164.522 135.954L174.559 132.219L177.223 127.982L152.692 125.783L140.16 139.712L153.15 136.429L157.787 137.733Z" fill="#E65300"/>
<path d="M140.16 139.712L177.223 127.982L151.656 125.783L140.16 139.712Z" fill="#FC823A"/>
<path d="M116.181 115.77L122.449 133.482L141.675 153.408L140.161 139.712L116.181 115.77Z" fill="black"/>
<path d="M123.351 114.513L143.607 109.399L162.816 123.111L140.161 126.97L123.351 114.513Z" fill="black"/>
<path d="M177.224 127.982L149.664 106.511L141.823 107.781L140.161 113.113L124.861 112.318L116.181 115.77L140.161 139.712L150.291 134.715L152.693 125.783L169.893 128.915L177.224 127.982Z" fill="#FC823A"/>
<path d="M177.223 127.982L169.892 128.915L154.582 125.314L147.578 121.125L152.692 125.782L148.972 135.203L140.16 139.712L149.953 136.786L153.625 126.247L169.104 130.553L177.223 127.982Z" fill="black"/>
<path d="M145.206 117.376L140.16 113.115L143.189 117.376H145.206Z" fill="black"/>
<path d="M139.751 136.788C139.879 136.788 139.999 136.743 140.096 136.657C141.028 135.831 146.291 131.618 146.511 129.591C146.752 127.357 146.284 124.648 146.284 124.648L154.328 108.164C154.889 106.998 154.507 105.06 153.223 104.891L152.225 105.17C151.175 105.032 150.15 105.566 149.664 106.509L140.98 123.357C140.98 123.357 138.254 124.269 136.468 128.606C135.174 131.749 134.719 134.289 134.568 135.449C134.52 135.814 134.805 136.134 135.17 136.134C135.39 136.134 135.594 136.013 135.7 135.821L138.812 130.221L139.473 130.406L136.819 136.22C136.698 136.485 136.891 136.784 137.18 136.784C137.321 136.784 137.449 136.712 137.521 136.592L141.132 130.61L142.006 130.482L139.276 136.034C139.108 136.382 139.359 136.784 139.745 136.784L139.751 136.788Z" fill="black"/>
<path d="M139.554 135.953H139.799C139.895 135.953 139.988 135.919 140.06 135.854C140.893 135.117 146.06 130.477 146.283 128.426C146.524 126.192 146.283 123.817 146.283 123.817L154.314 107.134C154.875 105.967 154.131 104.59 152.847 104.421L152.224 104.339C151.174 104.201 150.149 104.735 149.663 105.678L140.979 122.526C140.979 122.526 138.253 123.438 136.467 127.775C135.076 131.152 134.653 133.837 134.536 134.859C134.508 135.096 134.694 135.306 134.932 135.306H135.293C135.438 135.306 135.572 135.227 135.641 135.1L138.811 129.393L139.472 129.579L136.818 135.392C136.697 135.657 136.89 135.957 137.179 135.957C137.32 135.957 137.448 135.885 137.52 135.764L141.131 129.782L142.005 129.655L139.189 135.382C139.059 135.647 139.251 135.957 139.547 135.957L139.554 135.953Z" fill="#E65300"/>
<path d="M161.287 109.158C155.969 112.617 133.652 126.908 127.139 131.07C126.361 131.569 125.374 130.873 125.577 129.972C125.942 128.323 126.874 125.745 129.17 122.175C129.611 121.494 130.309 121.016 131.108 120.857L137.82 119.535L158.757 107.275C159.442 106.876 160.296 106.907 160.943 107.361L161.311 107.619C161.852 107.995 161.841 108.797 161.291 109.154L161.287 109.158Z" fill="black"/>
<path d="M161.287 108.584C155.924 112.074 133.263 126.582 126.971 130.602C126.262 131.053 125.36 130.437 125.528 129.615C125.859 127.98 126.768 125.329 129.167 121.605C129.607 120.924 130.306 120.445 131.104 120.287L137.816 118.965L158.754 106.705C159.439 106.306 160.292 106.337 160.939 106.791L161.308 107.049C161.848 107.424 161.838 108.226 161.287 108.584Z" fill="#E65300"/>
<path d="M177.224 127.982L164.523 135.954L178.019 128.402L177.224 127.982Z" fill="black"/>
<path d="M157.787 137.734H144.17L140.16 139.713L157.787 137.734Z" fill="black"/>
<path d="M170.643 143.622L164.523 135.953L168.585 144.317L170.643 143.622Z" fill="black"/>
<path d="M178.019 128.402L164.523 135.954L170.643 143.623L178.019 128.402Z" fill="#FC823A"/>
<path d="M157.787 137.734L141.675 153.408L140.16 139.713L157.787 137.734Z" fill="#FC823A"/>
<path d="M146.27 155.38L158.692 151.914L146.27 157.173V155.38Z" fill="black"/>
<path d="M174.374 141.908L170.643 143.622L163.648 149.839L174.374 141.908Z" fill="black"/>
<path d="M163.648 149.839L167.583 155.941L164.523 149.539L174.374 141.908L170.643 143.622L163.648 149.839Z" fill="black"/>
<path d="M158.692 151.914L146.27 168.274V157.173L158.692 151.914Z" fill="#FC823A"/>
<path d="M174.374 141.908L164.523 149.539L167.583 155.941L174.374 141.908Z" fill="#FC823A"/>
</g>
</g>
<defs>
<clipPath id="clip0_808_110778">
<rect x="34" y="20" width="164" height="164" rx="82" fill="white"/>
</clipPath>
<clipPath id="clip1_808_110778">
<rect width="371.733" height="371.733" fill="white" transform="translate(34 -187.733)"/>
</clipPath>
</defs>
</svg>
