<svg width="24" height="24" viewBox="0 0 24 24" fill="none" xmlns="http://www.w3.org/2000/svg">
  <title>Megaphone (outlined)</title>
  <g transform="matrix(
          1 0
          0 1
          1 1
        )"><path fill-rule="nonzero" clip-rule="nonzero" d="M 18 0 L 14.199951171875 2.5 C 12.699951171875 3.5 11.000048637390137 4 9.300048828125 4 L 8 4 L 6 4 C 2.700000047683716 4 0 6.699999809265137 0 10 C 0 12.199999809265137 1.2000000476837158 14.20001220703125 3 15.20001220703125 L 3 22 L 11 22 L 11 16.20001220703125 C 12.199999809265137 16.400012969970703 13.299951553344727 16.899999618530273 14.199951171875 17.5 L 18 20 L 22 20 L 22 0 L 18 0 Z M 6 7 L 8 7 L 8 13 L 6 13 C 4.300000190734863 13 3 11.699999809265137 3 10 C 3 8.300000190734863 4.300000190734863 7 6 7 Z M 8 19 L 6 19 L 6 16 L 8 16 L 8 19 Z M 19 17 L 15.89990234375 15 C 14.39990234375 14 12.699999809265137 13.399975776672363 11 13.0999755859375 L 11 6.9000244140625 C 12.800000190734863 6.600024223327637 14.39990234375 6 15.89990234375 5 L 18.89990234375 3 L 19 3 L 19 17 Z" fill="currentColor"/></g>
</svg>