<svg width="36" height="36" viewBox="0 0 36 36" fill="none" xmlns="http://www.w3.org/2000/svg">
<path d="M7.47217 31.0282V33.13C7.47217 34.1655 8.31265 35 9.3468 35H26.6445C27.6825 35 28.5191 34.1616 28.5191 33.13V31.0282H7.47217Z" fill="#276EF1"/>
<path d="M28.523 4.97182V2.87C28.523 1.83455 27.6825 1 26.6484 1H9.35067C8.31265 1 7.47217 1.83841 7.47217 2.87V4.97182H28.523Z" fill="#276EF1"/>
<path d="M28.523 4.9718H7.47217V31.0282H28.523V4.9718Z" fill="#A0BFF8"/>
<path d="M17.9994 34.1036C18.5428 34.1036 18.9832 33.6642 18.9832 33.1222C18.9832 32.5802 18.5428 32.1409 17.9994 32.1409C17.4561 32.1409 17.0156 32.5802 17.0156 33.1222C17.0156 33.6642 17.4561 34.1036 17.9994 34.1036Z" fill="white"/>
<path d="M17.7904 27.1877V18.8075L28.523 8.10135V5.91453L17.7904 16.6207V4.9718H16.2411V7.38657H7.47217V8.93203H16.2411V18.1661L7.47217 26.9134V28.7332H28.523V27.1877H17.7904ZM16.2411 27.1877H9.3894L16.2411 20.3529V27.1877Z" fill="white"/>
<path d="M28.8559 15.5079C27.3299 13.9856 24.851 13.9856 23.325 15.5079C22.0468 16.7829 21.8415 18.7225 22.7053 20.2138L22.7014 20.2177L26.0904 26.0402L29.4795 20.2177L29.4756 20.2138C30.3393 18.7225 30.1379 16.7829 28.8559 15.5079Z" fill="black"/>
<path d="M26.0903 19.4643C26.7535 19.4643 27.291 18.9281 27.291 18.2666C27.291 17.6051 26.7535 17.0688 26.0903 17.0688C25.4272 17.0688 24.8896 17.6051 24.8896 18.2666C24.8896 18.9281 25.4272 19.4643 26.0903 19.4643Z" fill="#A0BFF8"/>
<path d="M12.6738 11.4164C11.1477 9.89409 8.6689 9.89409 7.14285 11.4164C5.8647 12.6914 5.65942 14.6309 6.52314 16.1223L6.51927 16.1261L9.90832 21.9486L13.2974 16.1261L13.2935 16.1223C14.1533 14.6309 13.9519 12.6914 12.6738 11.4164Z" fill="black"/>
<path d="M9.90455 15.3727C10.5677 15.3727 11.1052 14.8365 11.1052 14.175C11.1052 13.5135 10.5677 12.9773 9.90455 12.9773C9.24143 12.9773 8.70386 13.5135 8.70386 14.175C8.70386 14.8365 9.24143 15.3727 9.90455 15.3727Z" fill="#A0BFF8"/>
</svg>
