<svg width="36" height="36" viewBox="0 0 36 36" fill="none" xmlns="http://www.w3.org/2000/svg">
<path d="M18.773 23.7065H17.2275V32.7745H18.773V23.7065Z" fill="#276EF1"/>
<path d="M35 1H1V26.5155H35V1Z" fill="#A0BFF8"/>
<path d="M35 1H1V4.24546H35V1Z" fill="#276EF1"/>
<path d="M13.4525 18.0309H7.37109V23.7066H13.4525V18.0309Z" fill="white"/>
<path d="M21.0408 12.3552H14.9595V23.7066H21.0408V12.3552Z" fill="#276EF1"/>
<path d="M18 34.9999C19.0498 34.9999 19.9009 34.1489 19.9009 33.099C19.9009 32.0492 19.0498 31.1981 18 31.1981C16.9502 31.1981 16.0991 32.0492 16.0991 33.099C16.0991 34.1489 16.9502 34.9999 18 34.9999Z" fill="black"/>
<path d="M28.6287 6.67957H22.5474V23.7066H28.6287V6.67957Z" fill="black"/>
</svg>
