<svg width="48" height="45" viewBox="0 0 48 45" fill="none" xmlns="http://www.w3.org/2000/svg">
<path d="M28.1 40.1368L9.25 40.3168L9.2 40.2568C6.1 33.8368 3.35 28.7968 3.35 28.7968L0 17.9368H27.95L28.1 40.1368Z" fill="#AFAFAF"/>
<path d="M8.3 26.2768L12.75 26.2168L12.7 17.9368H8.25L8.3 26.2768Z" fill="#E2E2E2"/>
<path d="M10.1499 26.2768L10.8999 26.2168L10.9999 35.8768L10.1999 33.7768L10.1749 30.0268L10.1499 26.2768Z" fill="#E2E2E2"/>
<path d="M12.7 40.3767H0V17.9367L2.6 17.8767L10.2 33.7767L10.25 40.3167H11V35.8767L12.7 40.3767Z" fill="#CBCBCB"/>
<path d="M10.25 40.3166L10.2 33.7766L11 35.8766V40.3166H10.25Z" fill="#E5E5E5"/>
<path d="M23.85 2.99683H8.94995V17.8768H23.85V2.99683Z" fill="#276EF1"/>
<path d="M20.2501 2.5767H18.9001L18.8501 0.116699H20.4501L20.2501 2.5767Z" fill="#A0BFF8"/>
<path d="M17.95 0.596807L16 3.05681H17.65C18.35 3.05681 20.1 2.39681 20.1 1.55681C20.1 1.07681 19.9 0.656807 19.6 0.356807C19.05 -0.0631929 18.35 0.0568071 17.95 0.596807Z" fill="#A0BFF8"/>
<path d="M19.5501 0.596807L17.6001 3.05681H20.4501C21.1501 3.05681 21.7001 2.39681 21.7001 1.55681C21.7001 1.07681 21.5001 0.656807 21.2001 0.356807C20.7001 -0.0631929 20.0001 0.0568071 19.5501 0.596807Z" fill="black"/>
<path d="M12.5501 2.5767H13.9001L13.9501 0.116699H12.3501L12.5501 2.5767Z" fill="#A0BFF8"/>
<path d="M14.9 0.596807L16.85 3.05681H15.2C14.5 3.05681 12.75 2.39681 12.75 1.55681C12.75 1.07681 12.95 0.656807 13.25 0.356807C13.75 -0.0631929 14.45 0.0568071 14.9 0.596807Z" fill="#A0BFF8"/>
<path d="M13.2501 0.596807L15.2001 3.05681H12.3501C11.6501 3.05681 11.1001 2.39681 11.1001 1.55681C11.1001 1.07681 11.3001 0.656807 11.6001 0.356807C12.1001 -0.0631929 12.8001 0.0568071 13.2501 0.596807Z" fill="black"/>
<path d="M16.4002 1.73682C15.7502 1.73682 15.2002 2.33682 15.2002 3.05682H17.6002C17.6002 2.33682 17.0502 1.73682 16.4002 1.73682Z" fill="#276EF1"/>
<path d="M17.6 3.05688H15.2V17.8769H17.6V3.05688Z" fill="white"/>
<path d="M23.843 11.9198V9.03979H8.94302V11.9198H16.393H23.843Z" fill="#A0BFF8"/>
<path d="M17.6 11.9368H15.2V12.2968H17.6V11.9368Z" fill="white"/>
<path d="M15.2 16.6768H8.94995V17.8768H15.2V16.6768Z" fill="#CBCBCB"/>
<path d="M23.8501 16.6768H17.6001V17.8768H23.8501V16.6768Z" fill="#CBCBCB"/>
<path d="M17.6 16.6768H15.2V17.8768H17.6V16.6768Z" fill="#CBCBCB"/>
<path d="M48.0001 12.1768V14.0368L47.9001 13.8568L48.0001 12.1768Z" fill="#F6F6F6"/>
<path d="M48.0001 15.8967V30.4767L46.5501 30.9567L38.0501 33.9567L37.0501 34.3167L33.1001 35.6967L31.8501 36.1167L29.8501 30.1767L33.0501 27.6567L34.7001 26.3367L42.8501 19.9167L48.0001 15.8967Z" fill="#CBCBCB"/>
<path d="M17.45 34.1968C17.85 33.9568 18.1 33.4768 18.1 32.9368V32.3368L16.35 31.3768H14.7C14.05 31.3768 13.4 31.0168 13 30.3568L12.25 29.2168C12 28.8568 12.2 28.3168 12.6 28.2568L19.15 27.9568C19.9 27.8968 20.6 28.0168 21.35 28.1368L28.9 29.9368L34.5 25.4968L37.3 34.9768L31.85 36.1168L31.35 37.0768C30.7 38.3968 29.75 39.4768 28.6 40.1968L21 44.8768C20.35 45.2968 19.55 45.0568 19.1 44.3968L18.65 43.7368L18.05 43.9768C17.4 44.2768 16.7 43.9768 16.35 43.3168L16.05 42.7768L14.5 43.1368C13.75 43.3168 12.95 42.9568 12.5 42.2368L12.1 41.5168C11.4 41.9368 10.55 41.8768 9.90005 41.2768L8.80005 40.3168C8.80005 40.3168 9.05005 40.3168 9.30005 40.3168C9.65005 40.3168 9.95005 40.1968 10.25 39.9568C12.6 38.2768 15.05 35.6368 17.45 34.1968Z" fill="#276EF1"/>
<path d="M48 14.0367V29.8767L42.9 19.9767L42.85 19.9167C42.6 19.3767 42.75 18.7167 43.15 18.3567L47.95 13.8567L48 14.0367Z" fill="#CBCBCB"/>
<path d="M48.0001 29.8767V30.4767L46.5501 30.9568L42.8501 19.9167L42.9001 19.9767L48.0001 29.8767Z" fill="#AFAFAF"/>
<path d="M34.75 26.3367L37.05 34.3167L38.05 33.9567L34.75 26.3367Z" fill="#AFAFAF"/>
<path d="M18.7 43.7368L19.45 43.1968L19 44.2168L18.7 43.7368Z" fill="#276EF1"/>
<path d="M16.1001 42.8368L16.8501 42.4768L16.4001 43.3168L16.1001 42.8368Z" fill="#276EF1"/>
<path d="M12.1001 41.5167L13.1001 40.8567L12.5501 42.2367L12.1001 41.5167Z" fill="#276EF1"/>
<path d="M16.3501 31.3767L18.8501 31.5567C19.2001 31.5567 19.4001 31.9767 19.3001 32.3367C19.1001 33.1767 18.2001 33.9567 17.8001 34.1967C17.3001 34.5567 16.8001 34.6767 16.5001 34.7367C17.0001 34.3767 17.3501 34.0167 17.5501 33.7167C17.8001 33.4167 17.8501 33.2367 17.9001 33.1167C18.0001 32.6367 17.8001 32.1567 17.4001 31.9167L16.3501 31.3767Z" fill="#276EF1"/>
</svg>
