<svg width="24" height="24" viewBox="0 0 24 24" fill="none" xmlns="http://www.w3.org/2000/svg">
  <title>Globe (filled)</title>
  <g transform="matrix(
          1 0
          0 1
          1 1
        )"><path fill-rule="nonzero" clip-rule="nonzero" d="M 11 0 C 4.900000095367432 0 0 4.900000095367432 0 11 C 0 17.100000381469727 4.900000095367432 22 11 22 C 17.100000381469727 22 22 17.100000381469727 22 11 C 22 4.900000095367432 17.100000381469727 0 11 0 Z M 19 11 C 19 11.699999809265137 18.899951934814453 12.399999618530273 18.699951171875 13 C 18.099950790405273 11.5 17.099950790405273 9.899988174438477 15.699951171875 8.29998779296875 L 17.5 6.5 C 18.5 7.800000190734863 19 9.300000190734863 19 11 Z M 5.5 5.5 C 6.800000190734863 5.5 9.100000381469727 6.299993991851807 11.5 8.399993896484375 L 8.300048828125 11.600006103515625 C 6.100049018859863 8.800005912780762 5.5 6.5 5.5 5.5 Z M 13.60009765625 10.5 C 15.900097846984863 13.199999809265137 16.5 15.5 16.5 16.5 C 15.199999809265137 16.5 12.899999618530273 15.700006484985352 10.5 13.600006103515625 L 13.60009765625 10.5 Z M 15.5 4.399993896484375 L 13.60009765625 6.29998779296875 C 12.000097274780273 4.899987697601318 10.39990234375 3.8999876976013184 8.89990234375 3.29998779296875 C 9.599902153015137 3.099987745285034 10.199902534484863 3 10.89990234375 3 C 12.699902534484863 3 14.199999809265137 3.4999938011169434 15.5 4.399993896484375 Z M 3 11 C 3 10.300000190734863 3.100048780441284 9.600000381469727 3.300048828125 9 C 3.9000487327575684 10.5 4.900048732757568 12.100011825561523 6.300048828125 13.70001220703125 L 4.5 15.5 C 3.5 14.199999809265137 3 12.699999809265137 3 11 Z M 6.5 17.600006103515625 L 8.39990234375 15.70001220703125 C 9.999902725219727 17.100011825561523 11.60009765625 18.100011825561523 13.10009765625 18.70001220703125 C 12.400097846984863 18.900012969970703 11.800097465515137 19 11.10009765625 19 C 9.300097465515137 19 7.800000190734863 18.5000057220459 6.5 17.600006103515625 Z" fill="currentColor"/></g>
</svg>