<svg width="24" height="24" viewBox="0 0 24 24" fill="none" xmlns="http://www.w3.org/2000/svg">
<path d="M12 1C6.68 1 2 3.04 2 3.04V14.94C2 19.78 7.57 22.09 12 24C16.4 22.11 22 19.8 22 14.94V3.04C22 3.04 17.5 1 12 1ZM19 14.94C19 17.33 15.91 19.01 12 20.73C7.97 18.96 5 17.34 5 14.94V5.15C6.65 4.64 9.26 4 12 4C14.83 4 17.39 4.63 19 5.14V14.94Z" fill="black"/>
<path d="M7 6.67V14.95C7 16.1 9.7 17.51 12 18.55C14.3 17.51 17 16.1 17 14.95V6.65C15.63 6.3 13.88 6 12 6C10.17 6 8.41 6.31 7 6.67Z" fill="black"/>
</svg>
