<svg width="64" height="64" viewBox="0 0 64 64" fill="none" xmlns="http://www.w3.org/2000/svg">
<path d="M51.8923 1.7781H45.7243C37.5513 1.7921 30.9433 8.4131 30.9573 16.5871V17.1501C30.4073 12.4801 26.4373 8.8531 21.6153 8.8531L15.4473 8.8391V8.8531C15.4473 15.9131 19.3493 16.6141 23.6353 16.6141H26.2863C27.2115 16.6152 28.0986 16.9832 28.7529 17.6375C29.4072 18.2917 29.7752 19.1788 29.7763 20.1041V24.0601H32.7703V16.1331C32.7843 14.0041 34.5423 12.2871 36.6713 12.2871H40.9853C46.7953 12.3011 51.8923 11.3391 51.8923 1.7771V1.7781Z" fill="#A6D467"/>
<path d="M44.9138 25.6671H17.6318C21.8603 23.5279 26.5341 22.4171 31.2728 22.4251C36.0113 22.4203 40.6843 23.5309 44.9138 25.6671Z" fill="#A33B04"/>
<path d="M48.1967 41.369L44.7347 59.722C44.6014 60.4231 44.2284 61.0559 43.6796 61.5121C43.1307 61.9682 42.4403 62.2192 41.7267 62.222H20.8317C20.1174 62.2217 19.4256 61.9716 18.8763 61.5151C18.3269 61.0585 17.9546 60.4242 17.8237 59.722L14.3477 41.314L48.1977 41.369H48.1967Z" fill="#002661"/>
<path d="M50.2577 34.844H12.3147C12.0999 34.8446 11.8871 34.8026 11.6885 34.7206C11.49 34.6387 11.3096 34.5182 11.1577 34.3663C11.0059 34.2143 10.8856 34.0339 10.8037 33.8353C10.7218 33.6367 10.68 33.4239 10.6807 33.209V28.373H51.9057V33.209C51.8991 33.6429 51.723 34.0569 51.415 34.3625C51.107 34.6681 50.6916 34.841 50.2577 34.844Z" fill="#068BEE"/>
<path d="M51.892 25.7219H10.667V28.3599H51.892V25.7219Z" fill="white"/>
<path d="M49.434 34.844L48.197 41.369L14.348 41.314L13.126 34.844H49.434Z" fill="black"/>
</svg>
