<svg xmlns="http://www.w3.org/2000/svg" viewBox="0 0 492 328"><title>_background</title><g id="Layer_2" data-name="Layer 2"><rect width="492" height="328" fill="#f6f6f6"/></g><g id="Layer_1" data-name="Layer 1"><path d="M294.48722,251.84233c-12.79771,7.56886-30.51107,15.6313-32.52716,16.539L246,275.52058l-15.96-7.13926c-1.99961-.89123-19.66389-8.93717-32.52717-16.539-10.64469-6.29654-20.46936-13.34077-28.97111-22.35841-5.34194-5.738-19.5161-20.97364-19.5161-45.60806V71.8743C180.90079,61.24922,207.21024,52.47942,246,52.47942s65.09311,8.76767,96.97441,19.39488V183.87587c0,24.61792-19.48313,45.57507-19.48313,45.57507C315.359,238.08846,304.6385,245.84543,294.48722,251.84233Zm-103.895-39.97868a96.25126,96.25126,0,0,0,21.366,17.16933c10.98923,6.74069,22.44172,12.04323,34.05634,17.39526,11.94822-4.56363,23.0741-10.68366,34.04189-17.40982,7.85493-4.82641,15.17262-10.19784,21.35181-17.1703,4.04286-4.51416,12.47382-13.93424,12.47382-29.28238V94.66329C291.89314,87.12421,275.09233,81.57175,246,81.57175s-45.89314,5.55246-67.88209,13.09154v87.917c0,15.30838,8.40322,24.72266,12.454,29.26009Z" fill="#276ef1"/><path d="M246,100.96663c24.12045,0,48.48719,8.75349,48.48719,8.75349v73.508c0,8.7151-5.06012,13.98469-8.07507,17.52619-3.02366,3.54053-6.6476,7.10144-16.16853,13.14875C260.73135,219.95036,246,227.03337,246,227.03337s-14.73136-7.09175-24.24361-13.14c-9.51232-6.057-13.15323-9.60725-16.16823-13.14875-3.015-3.51242-8.07535-8.8014-8.07535-17.49709V109.73913S221.87984,100.96663,246,100.96663Z" fill="#276ef1"/></g></svg>