<svg width="64" height="64" viewBox="0 0 64 64" fill="none" xmlns="http://www.w3.org/2000/svg">
<path d="M32 35.0081V35.0151L43.43 38.6851L62.222 25.2871L32 35.0081ZM32 35.0151L50.676 60.4451L43.43 38.6851L32 35.0151Z" fill="black"/>
<path d="M31.9933 35.0011L24.9333 25.3831L1.77832 25.2871L31.9933 35.0071V35.0011Z" fill="#FC823A"/>
<path d="M31.9934 3.56204L24.9334 25.382L31.9934 35.002V3.56204ZM31.9934 35.015L20.5574 38.685L13.3174 60.445L31.9934 35.022V35.015Z" fill="#FC823A"/>
<path d="M31.9933 35.0079L1.77832 25.2879L20.5573 38.6849L31.9933 35.0149V35.0079ZM62.2223 25.2869L32.0003 35.0069L31.9933 35.0009V3.55591L39.0613 25.3889L62.2223 25.2869ZM50.6763 60.4439L50.3673 60.2339L31.9933 46.9099L13.3243 60.4439L31.9943 35.0209L32.0003 35.0069L50.6763 60.4439Z" fill="#A33B04"/>
</svg>
