<svg width="64" height="64" viewBox="0 0 64 64" fill="none" xmlns="http://www.w3.org/2000/svg">
<path d="M50.2204 61.51H13.1504C12.5395 61.5048 11.9556 61.2577 11.5264 60.8229C11.0972 60.3881 10.8578 59.801 10.8604 59.19V10.86C10.8578 10.5572 10.915 10.2567 11.0288 9.97603C11.1426 9.69533 11.3107 9.43986 11.5235 9.22429C11.7362 9.00872 11.9895 8.83731 12.2687 8.71989C12.5479 8.60246 12.8476 8.54134 13.1504 8.54004H50.2204C50.5233 8.54134 50.823 8.60246 51.1022 8.71989C51.3814 8.83731 51.6346 9.00872 51.8474 9.22429C52.0602 9.43986 52.2283 9.69533 52.3421 9.97603C52.4559 10.2567 52.5131 10.5572 52.5104 10.86V59.19C52.5131 59.801 52.2736 60.3881 51.8445 60.8229C51.4153 61.2577 50.8314 61.5048 50.2204 61.51Z" fill="#002661"/>
<path d="M13.71 58.6199V11.4199H49.65V58.6199H13.71Z" fill="white"/>
<path d="M41.7798 8.45999V13.59H22.0498V8.45999H23.9998C24.4608 8.45407 24.9068 8.29591 25.2685 8.01015C25.6303 7.72439 25.8874 7.32705 25.9998 6.87999C26.3392 5.62401 27.0829 4.51482 28.1159 3.7239C29.149 2.93298 30.4138 2.50439 31.7148 2.50439C33.0158 2.50439 34.2806 2.93298 35.3137 3.7239C36.3467 4.51482 37.0904 5.62401 37.4298 6.87999C37.5423 7.32705 37.7994 7.72439 38.1611 8.01015C38.5228 8.29591 38.9689 8.45407 39.4298 8.45999H41.7798Z" fill="black"/>
<path d="M31.6799 8.46009C31.9497 8.46406 32.2146 8.38768 32.4408 8.24067C32.6671 8.09367 32.8445 7.88268 32.9505 7.63454C33.0565 7.38641 33.0863 7.11236 33.0361 6.84724C32.9859 6.58212 32.858 6.33792 32.6686 6.14572C32.4793 5.95351 32.237 5.82199 31.9726 5.76787C31.7083 5.71375 31.4338 5.73949 31.1842 5.84181C30.9345 5.94413 30.7209 6.11841 30.5705 6.34247C30.4202 6.56654 30.3399 6.83026 30.3399 7.10009C30.3386 7.27737 30.3722 7.45318 30.4388 7.61748C30.5054 7.78177 30.6038 7.93133 30.7282 8.05762C30.8526 8.18391 31.0007 8.28445 31.164 8.35351C31.3273 8.42256 31.5026 8.45878 31.6799 8.46009Z" fill="white"/>
<path d="M44.9996 29.1999H30.5796V31.8799H44.9996V29.1999ZM45.4996 35.2099H30.5796V37.8899H45.4996V35.2099ZM45.4996 41.4099H30.5796V44.0899H45.4996V41.4099ZM36.6896 47.6199H30.5796V50.2999H36.6896V47.6199ZM45.4996 20.3999H17.8496V23.0799H45.4996V20.3999Z" fill="#068BEE"/>
<path d="M39.4883 43.7819L57.4353 25.8349C57.6516 25.6187 57.9445 25.4967 58.2503 25.4954C58.5562 25.4941 58.8501 25.6136 59.0683 25.8279L61.1893 27.9499C61.4067 28.1674 61.5288 28.4624 61.5288 28.7699C61.5288 29.0774 61.4067 29.3724 61.1893 29.5899L43.2433 47.5369L39.4883 43.7819Z" fill="#A6D467"/>
<path d="M43.2104 47.52L36.6904 50.3L39.4804 43.78L43.2104 47.52Z" fill="white"/>
<path d="M37.8104 47.6799L39.3304 49.1899L36.6904 50.2999L37.8104 47.6799Z" fill="#A6D467"/>
<path d="M17.1399 37.53L22.5499 28.15C22.5733 28.1128 22.6058 28.0822 22.6443 28.0609C22.6827 28.0397 22.726 28.0286 22.7699 28.0286C22.8139 28.0286 22.8571 28.0397 22.8956 28.0609C22.934 28.0822 22.9665 28.1128 22.9899 28.15L28.4099 37.53C28.4308 37.5681 28.4413 37.611 28.4406 37.6545C28.4398 37.6979 28.4277 37.7404 28.4055 37.7778C28.3833 37.8151 28.3517 37.846 28.3139 37.8675C28.2761 37.8889 28.2334 37.9001 28.1899 37.9H17.3499C17.3061 37.9015 17.2627 37.891 17.2244 37.8696C17.1862 37.8482 17.1545 37.8167 17.1328 37.7786C17.1112 37.7405 17.1004 37.6971 17.1017 37.6533C17.1029 37.6095 17.1161 37.5668 17.1399 37.53Z" fill="#FC823A"/>
<path d="M20.2998 36.0801L22.7698 31.8L25.2398 36.0801H20.2998Z" fill="white"/>
</svg>
