<svg width="36" height="36" viewBox="0 0 36 36" fill="none" xmlns="http://www.w3.org/2000/svg">
<path d="M35 28.455C35 29.7725 34.6098 31.005 33.9336 32.0288C32.7668 33.8216 30.7461 35 28.4511 35H1V12.5329H24.1934L35 6.76453V28.455Z" fill="#276EF1"/>
<path d="M35.0001 12.1157V28.455C34.2776 30.5916 32.2724 32.0289 30.0122 32.0289H6.954C6.954 30.3869 5.62105 29.0539 3.979 29.0539V18.4791C5.62105 18.4791 6.954 17.1462 6.954 15.5041H30.2401C32.3883 15.5041 34.3008 14.1441 35.0001 12.1157Z" fill="#A0BFF8"/>
<path d="M24.3827 32.8905C29.427 32.8905 33.5163 28.8064 33.5163 23.7684C33.5163 18.7304 29.427 14.6464 24.3827 14.6464C19.3383 14.6464 15.249 18.7304 15.249 23.7684C15.249 28.8064 19.3383 32.8905 24.3827 32.8905Z" fill="#276EF1"/>
<path d="M10.0215 25.6191C11.0458 25.6191 11.8761 24.7888 11.8761 23.7646C11.8761 22.7403 11.0458 21.91 10.0215 21.91C8.9973 21.91 8.16699 22.7403 8.16699 23.7646C8.16699 24.7888 8.9973 25.6191 10.0215 25.6191Z" fill="white"/>
<path d="M24.2165 1H29.2238C32.4152 1 35 3.58091 35 6.76455C35 9.94818 32.4152 12.5291 29.2238 12.5291H24.1934L24.2165 1Z" fill="black"/>
</svg>
